<mxfile host="Electron" modified="2024-04-23T08:27:06.898Z" agent="Mozilla/5.0 (Windows NT 10.0; Win64; x64) AppleWebKit/537.36 (KHTML, like Gecko) draw.io/24.2.5 Chrome/120.0.6099.109 Electron/28.1.0 Safari/537.36" etag="En_w2loolsmQxHX909E4" version="24.2.5" type="device" pages="5">
  <diagram id="yVdQKg4HNDBFwXOWyBZh" name="Unity">
    <mxGraphModel dx="1967" dy="1754" grid="1" gridSize="10" guides="1" tooltips="1" connect="1" arrows="1" fold="1" page="1" pageScale="1" pageWidth="850" pageHeight="1100" math="0" shadow="0">
      <root>
        <mxCell id="0" />
        <mxCell id="1" parent="0" />
        <mxCell id="3dit7GDhFKGcdMsa8iTQ-1" value="" style="edgeStyle=orthogonalEdgeStyle;rounded=0;orthogonalLoop=1;jettySize=auto;html=1;exitX=0.5;exitY=1;exitDx=0;exitDy=0;exitPerimeter=0;entryX=0.5;entryY=0;entryDx=0;entryDy=0;" edge="1" parent="1" source="3dit7GDhFKGcdMsa8iTQ-2" target="3dit7GDhFKGcdMsa8iTQ-75">
          <mxGeometry relative="1" as="geometry">
            <mxPoint x="-73" y="145" as="targetPoint" />
          </mxGeometry>
        </mxCell>
        <mxCell id="3dit7GDhFKGcdMsa8iTQ-2" value="start" style="shape=mxgraph.flowchart.terminator;strokeWidth=2;gradientColor=none;gradientDirection=north;fontStyle=0;html=1;" vertex="1" parent="1">
          <mxGeometry x="-673" y="-180" width="90" height="40" as="geometry" />
        </mxCell>
        <mxCell id="3dit7GDhFKGcdMsa8iTQ-3" style="edgeStyle=orthogonalEdgeStyle;rounded=0;orthogonalLoop=1;jettySize=auto;html=1;" edge="1" parent="1" source="3dit7GDhFKGcdMsa8iTQ-4" target="3dit7GDhFKGcdMsa8iTQ-8">
          <mxGeometry relative="1" as="geometry" />
        </mxCell>
        <mxCell id="3dit7GDhFKGcdMsa8iTQ-4" value="Registration&lt;div&gt;Input new username&lt;br&gt;and&lt;div&gt;password&lt;/div&gt;&lt;/div&gt;" style="shape=parallelogram;html=1;strokeWidth=2;perimeter=parallelogramPerimeter;whiteSpace=wrap;rounded=1;arcSize=12;size=0.23;" vertex="1" parent="1">
          <mxGeometry x="405" y="170" width="160" height="60" as="geometry" />
        </mxCell>
        <mxCell id="3dit7GDhFKGcdMsa8iTQ-5" value="" style="edgeStyle=orthogonalEdgeStyle;rounded=0;orthogonalLoop=1;jettySize=auto;html=1;" edge="1" parent="1" source="3dit7GDhFKGcdMsa8iTQ-8" target="3dit7GDhFKGcdMsa8iTQ-73">
          <mxGeometry relative="1" as="geometry" />
        </mxCell>
        <mxCell id="3dit7GDhFKGcdMsa8iTQ-6" style="edgeStyle=orthogonalEdgeStyle;rounded=0;orthogonalLoop=1;jettySize=auto;html=1;entryX=0;entryY=0.5;entryDx=0;entryDy=0;" edge="1" parent="1" source="3dit7GDhFKGcdMsa8iTQ-8" target="3dit7GDhFKGcdMsa8iTQ-13">
          <mxGeometry relative="1" as="geometry">
            <Array as="points">
              <mxPoint x="290" y="360" />
            </Array>
          </mxGeometry>
        </mxCell>
        <mxCell id="3dit7GDhFKGcdMsa8iTQ-7" style="edgeStyle=orthogonalEdgeStyle;rounded=0;orthogonalLoop=1;jettySize=auto;html=1;entryX=1;entryY=0.5;entryDx=0;entryDy=0;" edge="1" parent="1" source="3dit7GDhFKGcdMsa8iTQ-8" target="3dit7GDhFKGcdMsa8iTQ-11">
          <mxGeometry relative="1" as="geometry">
            <Array as="points">
              <mxPoint x="290" y="360" />
            </Array>
          </mxGeometry>
        </mxCell>
        <mxCell id="3dit7GDhFKGcdMsa8iTQ-8" value="&lt;div&gt;Log in&lt;/div&gt;&lt;div&gt;Input username&lt;br&gt;and&lt;div&gt;password&lt;/div&gt;&lt;/div&gt;" style="shape=parallelogram;html=1;strokeWidth=2;perimeter=parallelogramPerimeter;whiteSpace=wrap;rounded=1;arcSize=12;size=0.23;" vertex="1" parent="1">
          <mxGeometry x="210" y="170" width="160" height="60" as="geometry" />
        </mxCell>
        <mxCell id="3dit7GDhFKGcdMsa8iTQ-9" style="edgeStyle=orthogonalEdgeStyle;rounded=0;orthogonalLoop=1;jettySize=auto;html=1;entryX=0.5;entryY=1;entryDx=0;entryDy=0;exitX=0;exitY=0.5;exitDx=0;exitDy=0;" edge="1" parent="1" source="3dit7GDhFKGcdMsa8iTQ-73" target="3dit7GDhFKGcdMsa8iTQ-75">
          <mxGeometry relative="1" as="geometry">
            <mxPoint x="95" y="255" as="targetPoint" />
          </mxGeometry>
        </mxCell>
        <mxCell id="3dit7GDhFKGcdMsa8iTQ-10" value="" style="edgeStyle=orthogonalEdgeStyle;rounded=0;orthogonalLoop=1;jettySize=auto;html=1;entryX=0.5;entryY=0;entryDx=0;entryDy=0;exitX=0.5;exitY=1;exitDx=0;exitDy=0;" edge="1" parent="1" source="3dit7GDhFKGcdMsa8iTQ-11" target="3dit7GDhFKGcdMsa8iTQ-16">
          <mxGeometry relative="1" as="geometry">
            <Array as="points">
              <mxPoint x="116" y="390" />
              <mxPoint x="116" y="470" />
              <mxPoint x="115" y="470" />
            </Array>
          </mxGeometry>
        </mxCell>
        <mxCell id="3dit7GDhFKGcdMsa8iTQ-11" value="Display Menu Option&amp;nbsp;&lt;div&gt;for admin&lt;/div&gt;" style="whiteSpace=wrap;html=1;strokeWidth=2;rounded=1;arcSize=12;" vertex="1" parent="1">
          <mxGeometry x="58" y="330" width="120" height="60" as="geometry" />
        </mxCell>
        <mxCell id="3dit7GDhFKGcdMsa8iTQ-12" value="" style="edgeStyle=orthogonalEdgeStyle;rounded=0;orthogonalLoop=1;jettySize=auto;html=1;" edge="1" parent="1" source="3dit7GDhFKGcdMsa8iTQ-13" target="3dit7GDhFKGcdMsa8iTQ-37">
          <mxGeometry relative="1" as="geometry" />
        </mxCell>
        <mxCell id="3dit7GDhFKGcdMsa8iTQ-13" value="Dsiplay Menu option for user" style="whiteSpace=wrap;html=1;strokeWidth=2;rounded=1;arcSize=12;" vertex="1" parent="1">
          <mxGeometry x="1080" y="330" width="120" height="60" as="geometry" />
        </mxCell>
        <mxCell id="3dit7GDhFKGcdMsa8iTQ-14" value="" style="edgeStyle=orthogonalEdgeStyle;rounded=0;orthogonalLoop=1;jettySize=auto;html=1;" edge="1" parent="1" source="3dit7GDhFKGcdMsa8iTQ-16" target="3dit7GDhFKGcdMsa8iTQ-19">
          <mxGeometry relative="1" as="geometry" />
        </mxCell>
        <mxCell id="vYZtWB5qguZJEZh0VH7T-22" value="No" style="edgeLabel;html=1;align=center;verticalAlign=middle;resizable=0;points=[];" vertex="1" connectable="0" parent="3dit7GDhFKGcdMsa8iTQ-14">
          <mxGeometry x="-0.0676" y="1" relative="1" as="geometry">
            <mxPoint as="offset" />
          </mxGeometry>
        </mxCell>
        <mxCell id="3dit7GDhFKGcdMsa8iTQ-95" value="" style="edgeStyle=orthogonalEdgeStyle;rounded=0;orthogonalLoop=1;jettySize=auto;html=1;" edge="1" parent="1" source="3dit7GDhFKGcdMsa8iTQ-16" target="3dit7GDhFKGcdMsa8iTQ-90">
          <mxGeometry relative="1" as="geometry" />
        </mxCell>
        <mxCell id="vYZtWB5qguZJEZh0VH7T-21" value="Yes" style="edgeLabel;html=1;align=center;verticalAlign=middle;resizable=0;points=[];" vertex="1" connectable="0" parent="3dit7GDhFKGcdMsa8iTQ-95">
          <mxGeometry x="-0.0523" y="1" relative="1" as="geometry">
            <mxPoint as="offset" />
          </mxGeometry>
        </mxCell>
        <mxCell id="3dit7GDhFKGcdMsa8iTQ-16" value="Admin option 1&lt;div&gt;Dsiplay&amp;nbsp;&lt;/div&gt;&lt;div&gt;data Vehicle&lt;/div&gt;" style="rhombus;whiteSpace=wrap;html=1;strokeWidth=2;rounded=1;arcSize=12;" vertex="1" parent="1">
          <mxGeometry x="56" y="550" width="118" height="120" as="geometry" />
        </mxCell>
        <mxCell id="3dit7GDhFKGcdMsa8iTQ-17" value="" style="edgeStyle=orthogonalEdgeStyle;rounded=0;orthogonalLoop=1;jettySize=auto;html=1;" edge="1" parent="1" source="3dit7GDhFKGcdMsa8iTQ-19" target="3dit7GDhFKGcdMsa8iTQ-22">
          <mxGeometry relative="1" as="geometry" />
        </mxCell>
        <mxCell id="vYZtWB5qguZJEZh0VH7T-23" value="No" style="edgeLabel;html=1;align=center;verticalAlign=middle;resizable=0;points=[];" vertex="1" connectable="0" parent="3dit7GDhFKGcdMsa8iTQ-17">
          <mxGeometry x="0.0016" y="1" relative="1" as="geometry">
            <mxPoint as="offset" />
          </mxGeometry>
        </mxCell>
        <mxCell id="3dit7GDhFKGcdMsa8iTQ-156" value="" style="edgeStyle=orthogonalEdgeStyle;rounded=0;orthogonalLoop=1;jettySize=auto;html=1;" edge="1" parent="1" source="3dit7GDhFKGcdMsa8iTQ-19" target="3dit7GDhFKGcdMsa8iTQ-150">
          <mxGeometry relative="1" as="geometry" />
        </mxCell>
        <mxCell id="3dit7GDhFKGcdMsa8iTQ-19" value="Admin&amp;nbsp;&lt;div&gt;option 2&lt;/div&gt;" style="rhombus;whiteSpace=wrap;html=1;strokeWidth=2;rounded=1;arcSize=12;" vertex="1" parent="1">
          <mxGeometry x="56" y="720" width="118" height="120" as="geometry" />
        </mxCell>
        <mxCell id="3dit7GDhFKGcdMsa8iTQ-20" value="" style="edgeStyle=orthogonalEdgeStyle;rounded=0;orthogonalLoop=1;jettySize=auto;html=1;" edge="1" parent="1" source="3dit7GDhFKGcdMsa8iTQ-22" target="3dit7GDhFKGcdMsa8iTQ-25">
          <mxGeometry relative="1" as="geometry" />
        </mxCell>
        <mxCell id="vYZtWB5qguZJEZh0VH7T-25" value="No" style="edgeLabel;html=1;align=center;verticalAlign=middle;resizable=0;points=[];" vertex="1" connectable="0" parent="3dit7GDhFKGcdMsa8iTQ-20">
          <mxGeometry x="-0.0762" y="1" relative="1" as="geometry">
            <mxPoint as="offset" />
          </mxGeometry>
        </mxCell>
        <mxCell id="3dit7GDhFKGcdMsa8iTQ-21" value="" style="edgeStyle=orthogonalEdgeStyle;rounded=0;orthogonalLoop=1;jettySize=auto;html=1;entryX=0;entryY=0.5;entryDx=0;entryDy=0;" edge="1" parent="1" source="3dit7GDhFKGcdMsa8iTQ-22" target="3dit7GDhFKGcdMsa8iTQ-141">
          <mxGeometry relative="1" as="geometry">
            <mxPoint x="273" y="970.0000000000005" as="targetPoint" />
          </mxGeometry>
        </mxCell>
        <mxCell id="vYZtWB5qguZJEZh0VH7T-24" value="Yes" style="edgeLabel;html=1;align=center;verticalAlign=middle;resizable=0;points=[];" vertex="1" connectable="0" parent="3dit7GDhFKGcdMsa8iTQ-21">
          <mxGeometry x="-0.0331" y="1" relative="1" as="geometry">
            <mxPoint as="offset" />
          </mxGeometry>
        </mxCell>
        <mxCell id="3dit7GDhFKGcdMsa8iTQ-22" value="Admin&amp;nbsp;&lt;div&gt;option 3&lt;/div&gt;" style="rhombus;whiteSpace=wrap;html=1;strokeWidth=2;rounded=1;arcSize=12;" vertex="1" parent="1">
          <mxGeometry x="56" y="910" width="118" height="120" as="geometry" />
        </mxCell>
        <mxCell id="3dit7GDhFKGcdMsa8iTQ-23" value="" style="edgeStyle=orthogonalEdgeStyle;rounded=0;orthogonalLoop=1;jettySize=auto;html=1;" edge="1" parent="1" source="3dit7GDhFKGcdMsa8iTQ-25" target="3dit7GDhFKGcdMsa8iTQ-28">
          <mxGeometry relative="1" as="geometry" />
        </mxCell>
        <mxCell id="vYZtWB5qguZJEZh0VH7T-26" value="No" style="edgeLabel;html=1;align=center;verticalAlign=middle;resizable=0;points=[];" vertex="1" connectable="0" parent="3dit7GDhFKGcdMsa8iTQ-23">
          <mxGeometry x="-0.0637" y="2" relative="1" as="geometry">
            <mxPoint as="offset" />
          </mxGeometry>
        </mxCell>
        <mxCell id="3dit7GDhFKGcdMsa8iTQ-24" value="" style="edgeStyle=orthogonalEdgeStyle;rounded=0;orthogonalLoop=1;jettySize=auto;html=1;entryX=0;entryY=0.5;entryDx=0;entryDy=0;entryPerimeter=0;" edge="1" parent="1" source="3dit7GDhFKGcdMsa8iTQ-25">
          <mxGeometry relative="1" as="geometry">
            <mxPoint x="285" y="1150" as="targetPoint" />
          </mxGeometry>
        </mxCell>
        <mxCell id="3dit7GDhFKGcdMsa8iTQ-140" value="Yes" style="edgeLabel;html=1;align=center;verticalAlign=middle;resizable=0;points=[];" vertex="1" connectable="0" parent="3dit7GDhFKGcdMsa8iTQ-24">
          <mxGeometry x="-0.0159" relative="1" as="geometry">
            <mxPoint x="1" as="offset" />
          </mxGeometry>
        </mxCell>
        <mxCell id="3dit7GDhFKGcdMsa8iTQ-25" value="Admin&amp;nbsp;&lt;div&gt;option&amp;nbsp;&lt;span style=&quot;background-color: initial;&quot;&gt;4&lt;/span&gt;&lt;/div&gt;" style="rhombus;whiteSpace=wrap;html=1;strokeWidth=2;rounded=1;arcSize=12;" vertex="1" parent="1">
          <mxGeometry x="56" y="1090" width="118" height="120" as="geometry" />
        </mxCell>
        <mxCell id="3dit7GDhFKGcdMsa8iTQ-26" value="" style="edgeStyle=orthogonalEdgeStyle;rounded=0;orthogonalLoop=1;jettySize=auto;html=1;" edge="1" parent="1" source="3dit7GDhFKGcdMsa8iTQ-28" target="3dit7GDhFKGcdMsa8iTQ-31">
          <mxGeometry relative="1" as="geometry" />
        </mxCell>
        <mxCell id="vYZtWB5qguZJEZh0VH7T-27" value="No" style="edgeLabel;html=1;align=center;verticalAlign=middle;resizable=0;points=[];" vertex="1" connectable="0" parent="3dit7GDhFKGcdMsa8iTQ-26">
          <mxGeometry x="-0.0351" y="1" relative="1" as="geometry">
            <mxPoint as="offset" />
          </mxGeometry>
        </mxCell>
        <mxCell id="3dit7GDhFKGcdMsa8iTQ-97" value="" style="edgeStyle=orthogonalEdgeStyle;rounded=0;orthogonalLoop=1;jettySize=auto;html=1;" edge="1" parent="1" source="3dit7GDhFKGcdMsa8iTQ-28" target="3dit7GDhFKGcdMsa8iTQ-91">
          <mxGeometry relative="1" as="geometry" />
        </mxCell>
        <mxCell id="3dit7GDhFKGcdMsa8iTQ-28" value="Admin&amp;nbsp;&lt;div&gt;option 5&lt;/div&gt;" style="rhombus;whiteSpace=wrap;html=1;strokeWidth=2;rounded=1;arcSize=12;" vertex="1" parent="1">
          <mxGeometry x="56" y="1300" width="118" height="120" as="geometry" />
        </mxCell>
        <mxCell id="3dit7GDhFKGcdMsa8iTQ-29" value="" style="edgeStyle=orthogonalEdgeStyle;rounded=0;orthogonalLoop=1;jettySize=auto;html=1;" edge="1" parent="1" source="3dit7GDhFKGcdMsa8iTQ-31" target="3dit7GDhFKGcdMsa8iTQ-34">
          <mxGeometry relative="1" as="geometry" />
        </mxCell>
        <mxCell id="vYZtWB5qguZJEZh0VH7T-28" value="No" style="edgeLabel;html=1;align=center;verticalAlign=middle;resizable=0;points=[];" vertex="1" connectable="0" parent="3dit7GDhFKGcdMsa8iTQ-29">
          <mxGeometry x="0.0534" y="-1" relative="1" as="geometry">
            <mxPoint as="offset" />
          </mxGeometry>
        </mxCell>
        <mxCell id="3dit7GDhFKGcdMsa8iTQ-113" value="" style="edgeStyle=orthogonalEdgeStyle;rounded=0;orthogonalLoop=1;jettySize=auto;html=1;" edge="1" parent="1" source="3dit7GDhFKGcdMsa8iTQ-31" target="3dit7GDhFKGcdMsa8iTQ-111">
          <mxGeometry relative="1" as="geometry" />
        </mxCell>
        <mxCell id="vYZtWB5qguZJEZh0VH7T-31" value="Yes" style="edgeLabel;html=1;align=center;verticalAlign=middle;resizable=0;points=[];" vertex="1" connectable="0" parent="3dit7GDhFKGcdMsa8iTQ-113">
          <mxGeometry x="-0.0832" y="-2" relative="1" as="geometry">
            <mxPoint as="offset" />
          </mxGeometry>
        </mxCell>
        <mxCell id="3dit7GDhFKGcdMsa8iTQ-31" value="Admin&amp;nbsp;&lt;div&gt;option 6&lt;/div&gt;" style="rhombus;whiteSpace=wrap;html=1;strokeWidth=2;rounded=1;arcSize=12;" vertex="1" parent="1">
          <mxGeometry x="56" y="1490" width="118" height="120" as="geometry" />
        </mxCell>
        <mxCell id="3dit7GDhFKGcdMsa8iTQ-32" style="edgeStyle=orthogonalEdgeStyle;rounded=0;orthogonalLoop=1;jettySize=auto;html=1;exitX=0;exitY=0.5;exitDx=0;exitDy=0;" edge="1" parent="1">
          <mxGeometry relative="1" as="geometry">
            <mxPoint x="-628" y="200" as="targetPoint" />
            <mxPoint x="58" y="1742" as="sourcePoint" />
          </mxGeometry>
        </mxCell>
        <mxCell id="vYZtWB5qguZJEZh0VH7T-30" value="Yes" style="edgeLabel;html=1;align=center;verticalAlign=middle;resizable=0;points=[];" vertex="1" connectable="0" parent="3dit7GDhFKGcdMsa8iTQ-32">
          <mxGeometry x="-0.696" relative="1" as="geometry">
            <mxPoint as="offset" />
          </mxGeometry>
        </mxCell>
        <mxCell id="3dit7GDhFKGcdMsa8iTQ-33" style="edgeStyle=orthogonalEdgeStyle;rounded=0;orthogonalLoop=1;jettySize=auto;html=1;entryX=0.5;entryY=0;entryDx=0;entryDy=0;" edge="1" parent="1" source="3dit7GDhFKGcdMsa8iTQ-34" target="3dit7GDhFKGcdMsa8iTQ-89">
          <mxGeometry relative="1" as="geometry">
            <mxPoint x="115" y="1860" as="targetPoint" />
            <Array as="points">
              <mxPoint x="115" y="1910" />
            </Array>
          </mxGeometry>
        </mxCell>
        <mxCell id="vYZtWB5qguZJEZh0VH7T-29" value="No" style="edgeLabel;html=1;align=center;verticalAlign=middle;resizable=0;points=[];" vertex="1" connectable="0" parent="3dit7GDhFKGcdMsa8iTQ-33">
          <mxGeometry x="-0.1988" y="-1" relative="1" as="geometry">
            <mxPoint as="offset" />
          </mxGeometry>
        </mxCell>
        <mxCell id="3dit7GDhFKGcdMsa8iTQ-34" value="Admin&amp;nbsp;&lt;div&gt;option 7&lt;/div&gt;" style="rhombus;whiteSpace=wrap;html=1;strokeWidth=2;rounded=1;arcSize=12;" vertex="1" parent="1">
          <mxGeometry x="56" y="1682" width="118" height="120" as="geometry" />
        </mxCell>
        <mxCell id="3dit7GDhFKGcdMsa8iTQ-35" value="" style="edgeStyle=orthogonalEdgeStyle;rounded=0;orthogonalLoop=1;jettySize=auto;html=1;" edge="1" parent="1" source="3dit7GDhFKGcdMsa8iTQ-37" target="3dit7GDhFKGcdMsa8iTQ-40">
          <mxGeometry relative="1" as="geometry" />
        </mxCell>
        <mxCell id="vYZtWB5qguZJEZh0VH7T-12" value="No" style="edgeLabel;html=1;align=center;verticalAlign=middle;resizable=0;points=[];" vertex="1" connectable="0" parent="3dit7GDhFKGcdMsa8iTQ-35">
          <mxGeometry x="0.009" y="2" relative="1" as="geometry">
            <mxPoint y="-1" as="offset" />
          </mxGeometry>
        </mxCell>
        <mxCell id="3dit7GDhFKGcdMsa8iTQ-36" value="" style="edgeStyle=orthogonalEdgeStyle;rounded=0;orthogonalLoop=1;jettySize=auto;html=1;entryX=0;entryY=0.5;entryDx=0;entryDy=0;" edge="1" parent="1" source="3dit7GDhFKGcdMsa8iTQ-37" target="3dit7GDhFKGcdMsa8iTQ-163">
          <mxGeometry relative="1" as="geometry">
            <mxPoint x="1298" y="510" as="targetPoint" />
          </mxGeometry>
        </mxCell>
        <mxCell id="vYZtWB5qguZJEZh0VH7T-13" value="Yes" style="edgeLabel;html=1;align=center;verticalAlign=middle;resizable=0;points=[];" vertex="1" connectable="0" parent="3dit7GDhFKGcdMsa8iTQ-36">
          <mxGeometry x="0.0129" y="1" relative="1" as="geometry">
            <mxPoint as="offset" />
          </mxGeometry>
        </mxCell>
        <mxCell id="3dit7GDhFKGcdMsa8iTQ-37" value="User&amp;nbsp;&lt;div&gt;option 1&lt;/div&gt;" style="rhombus;whiteSpace=wrap;html=1;strokeWidth=2;rounded=1;arcSize=12;" vertex="1" parent="1">
          <mxGeometry x="1081" y="450" width="118" height="120" as="geometry" />
        </mxCell>
        <mxCell id="3dit7GDhFKGcdMsa8iTQ-38" value="" style="edgeStyle=orthogonalEdgeStyle;rounded=0;orthogonalLoop=1;jettySize=auto;html=1;" edge="1" parent="1" source="3dit7GDhFKGcdMsa8iTQ-40" target="3dit7GDhFKGcdMsa8iTQ-43">
          <mxGeometry relative="1" as="geometry" />
        </mxCell>
        <mxCell id="vYZtWB5qguZJEZh0VH7T-10" value="No" style="edgeLabel;html=1;align=center;verticalAlign=middle;resizable=0;points=[];" vertex="1" connectable="0" parent="3dit7GDhFKGcdMsa8iTQ-38">
          <mxGeometry x="-0.0046" relative="1" as="geometry">
            <mxPoint as="offset" />
          </mxGeometry>
        </mxCell>
        <mxCell id="3dit7GDhFKGcdMsa8iTQ-39" value="" style="edgeStyle=orthogonalEdgeStyle;rounded=0;orthogonalLoop=1;jettySize=auto;html=1;entryX=0;entryY=0.5;entryDx=0;entryDy=0;" edge="1" parent="1" source="3dit7GDhFKGcdMsa8iTQ-40" target="3dit7GDhFKGcdMsa8iTQ-166">
          <mxGeometry relative="1" as="geometry">
            <mxPoint x="1299" y="740" as="targetPoint" />
          </mxGeometry>
        </mxCell>
        <mxCell id="vYZtWB5qguZJEZh0VH7T-11" value="Yes" style="edgeLabel;html=1;align=center;verticalAlign=middle;resizable=0;points=[];" vertex="1" connectable="0" parent="3dit7GDhFKGcdMsa8iTQ-39">
          <mxGeometry x="-0.0249" relative="1" as="geometry">
            <mxPoint as="offset" />
          </mxGeometry>
        </mxCell>
        <mxCell id="3dit7GDhFKGcdMsa8iTQ-40" value="User&amp;nbsp;&lt;div&gt;option 2&lt;/div&gt;" style="rhombus;whiteSpace=wrap;html=1;strokeWidth=2;rounded=1;arcSize=12;" vertex="1" parent="1">
          <mxGeometry x="1082" y="680" width="118" height="120" as="geometry" />
        </mxCell>
        <mxCell id="3dit7GDhFKGcdMsa8iTQ-41" value="" style="edgeStyle=orthogonalEdgeStyle;rounded=0;orthogonalLoop=1;jettySize=auto;html=1;" edge="1" parent="1" source="3dit7GDhFKGcdMsa8iTQ-43" target="3dit7GDhFKGcdMsa8iTQ-45">
          <mxGeometry relative="1" as="geometry" />
        </mxCell>
        <mxCell id="vYZtWB5qguZJEZh0VH7T-8" value="No" style="edgeLabel;html=1;align=center;verticalAlign=middle;resizable=0;points=[];" vertex="1" connectable="0" parent="3dit7GDhFKGcdMsa8iTQ-41">
          <mxGeometry x="-0.0312" y="1" relative="1" as="geometry">
            <mxPoint as="offset" />
          </mxGeometry>
        </mxCell>
        <mxCell id="3dit7GDhFKGcdMsa8iTQ-42" value="" style="edgeStyle=orthogonalEdgeStyle;rounded=0;orthogonalLoop=1;jettySize=auto;html=1;" edge="1" parent="1" source="3dit7GDhFKGcdMsa8iTQ-43">
          <mxGeometry relative="1" as="geometry">
            <mxPoint x="1299" y="1140" as="targetPoint" />
          </mxGeometry>
        </mxCell>
        <mxCell id="vYZtWB5qguZJEZh0VH7T-9" value="Yes" style="edgeLabel;html=1;align=center;verticalAlign=middle;resizable=0;points=[];" vertex="1" connectable="0" parent="3dit7GDhFKGcdMsa8iTQ-42">
          <mxGeometry x="-0.0852" relative="1" as="geometry">
            <mxPoint as="offset" />
          </mxGeometry>
        </mxCell>
        <mxCell id="3dit7GDhFKGcdMsa8iTQ-43" value="User&amp;nbsp;&lt;div&gt;option 3&lt;/div&gt;" style="rhombus;whiteSpace=wrap;html=1;strokeWidth=2;rounded=1;arcSize=12;" vertex="1" parent="1">
          <mxGeometry x="1082" y="1080" width="118" height="120" as="geometry" />
        </mxCell>
        <mxCell id="3dit7GDhFKGcdMsa8iTQ-44" style="edgeStyle=orthogonalEdgeStyle;rounded=0;orthogonalLoop=1;jettySize=auto;html=1;exitX=0.5;exitY=1;exitDx=0;exitDy=0;" edge="1" parent="1" source="3dit7GDhFKGcdMsa8iTQ-219">
          <mxGeometry relative="1" as="geometry">
            <mxPoint x="-628" y="1744" as="targetPoint" />
            <mxPoint x="1130" y="1650" as="sourcePoint" />
            <Array as="points">
              <mxPoint x="1140" y="1650" />
              <mxPoint x="1140" y="2004" />
              <mxPoint x="-628" y="2004" />
            </Array>
          </mxGeometry>
        </mxCell>
        <mxCell id="vYZtWB5qguZJEZh0VH7T-6" value="Yes" style="edgeLabel;html=1;align=center;verticalAlign=middle;resizable=0;points=[];" vertex="1" connectable="0" parent="3dit7GDhFKGcdMsa8iTQ-44">
          <mxGeometry x="-0.763" y="2" relative="1" as="geometry">
            <mxPoint as="offset" />
          </mxGeometry>
        </mxCell>
        <mxCell id="3dit7GDhFKGcdMsa8iTQ-210" value="" style="edgeStyle=orthogonalEdgeStyle;rounded=0;orthogonalLoop=1;jettySize=auto;html=1;" edge="1" parent="1" source="3dit7GDhFKGcdMsa8iTQ-45" target="3dit7GDhFKGcdMsa8iTQ-209">
          <mxGeometry relative="1" as="geometry" />
        </mxCell>
        <mxCell id="vYZtWB5qguZJEZh0VH7T-7" value="Yes" style="edgeLabel;html=1;align=center;verticalAlign=middle;resizable=0;points=[];" vertex="1" connectable="0" parent="3dit7GDhFKGcdMsa8iTQ-210">
          <mxGeometry x="-0.0221" y="1" relative="1" as="geometry">
            <mxPoint as="offset" />
          </mxGeometry>
        </mxCell>
        <mxCell id="3dit7GDhFKGcdMsa8iTQ-220" value="" style="edgeStyle=orthogonalEdgeStyle;rounded=0;orthogonalLoop=1;jettySize=auto;html=1;" edge="1" parent="1" source="3dit7GDhFKGcdMsa8iTQ-45" target="3dit7GDhFKGcdMsa8iTQ-219">
          <mxGeometry relative="1" as="geometry" />
        </mxCell>
        <mxCell id="3dit7GDhFKGcdMsa8iTQ-45" value="User&amp;nbsp;&lt;div&gt;option 4&lt;/div&gt;" style="rhombus;whiteSpace=wrap;html=1;strokeWidth=2;rounded=1;arcSize=12;" vertex="1" parent="1">
          <mxGeometry x="1082" y="1380" width="118" height="120" as="geometry" />
        </mxCell>
        <mxCell id="3dit7GDhFKGcdMsa8iTQ-59" value="Yes" style="text;html=1;align=center;verticalAlign=middle;whiteSpace=wrap;rounded=0;" vertex="1" parent="1">
          <mxGeometry x="-40" y="1330" width="60" height="30" as="geometry" />
        </mxCell>
        <mxCell id="3dit7GDhFKGcdMsa8iTQ-73" value="Show Notification: &quot;Wrong username or password&quot;" style="rounded=1;whiteSpace=wrap;html=1;" vertex="1" parent="1">
          <mxGeometry x="-10" y="171" width="120" height="60" as="geometry" />
        </mxCell>
        <mxCell id="3dit7GDhFKGcdMsa8iTQ-74" value="" style="edgeStyle=orthogonalEdgeStyle;rounded=0;orthogonalLoop=1;jettySize=auto;html=1;" edge="1" parent="1" source="3dit7GDhFKGcdMsa8iTQ-75" target="3dit7GDhFKGcdMsa8iTQ-82">
          <mxGeometry relative="1" as="geometry" />
        </mxCell>
        <mxCell id="3dit7GDhFKGcdMsa8iTQ-75" value="Display Menu&amp;nbsp;&lt;div&gt;Option&lt;/div&gt;" style="rounded=1;whiteSpace=wrap;html=1;" vertex="1" parent="1">
          <mxGeometry x="-688" y="10" width="120" height="70" as="geometry" />
        </mxCell>
        <mxCell id="3dit7GDhFKGcdMsa8iTQ-76" value="Option 3" style="strokeWidth=2;html=1;shape=mxgraph.flowchart.decision;whiteSpace=wrap;" vertex="1" parent="1">
          <mxGeometry x="620" y="-5" width="100" height="100" as="geometry" />
        </mxCell>
        <mxCell id="3dit7GDhFKGcdMsa8iTQ-77" value="" style="edgeStyle=orthogonalEdgeStyle;rounded=0;orthogonalLoop=1;jettySize=auto;html=1;" edge="1" parent="1" source="3dit7GDhFKGcdMsa8iTQ-79" target="3dit7GDhFKGcdMsa8iTQ-76">
          <mxGeometry relative="1" as="geometry" />
        </mxCell>
        <mxCell id="vYZtWB5qguZJEZh0VH7T-15" value="No" style="edgeLabel;html=1;align=center;verticalAlign=middle;resizable=0;points=[];" vertex="1" connectable="0" parent="3dit7GDhFKGcdMsa8iTQ-77">
          <mxGeometry x="-0.0064" y="2" relative="1" as="geometry">
            <mxPoint as="offset" />
          </mxGeometry>
        </mxCell>
        <mxCell id="3dit7GDhFKGcdMsa8iTQ-78" style="edgeStyle=orthogonalEdgeStyle;rounded=0;orthogonalLoop=1;jettySize=auto;html=1;entryX=0.5;entryY=0;entryDx=0;entryDy=0;" edge="1" parent="1" source="3dit7GDhFKGcdMsa8iTQ-79" target="3dit7GDhFKGcdMsa8iTQ-4">
          <mxGeometry relative="1" as="geometry" />
        </mxCell>
        <mxCell id="vYZtWB5qguZJEZh0VH7T-16" value="Yes" style="edgeLabel;html=1;align=center;verticalAlign=middle;resizable=0;points=[];" vertex="1" connectable="0" parent="3dit7GDhFKGcdMsa8iTQ-78">
          <mxGeometry x="-0.0128" y="-2" relative="1" as="geometry">
            <mxPoint as="offset" />
          </mxGeometry>
        </mxCell>
        <mxCell id="3dit7GDhFKGcdMsa8iTQ-79" value="Option 2" style="strokeWidth=2;html=1;shape=mxgraph.flowchart.decision;whiteSpace=wrap;" vertex="1" parent="1">
          <mxGeometry x="435" y="-5" width="100" height="100" as="geometry" />
        </mxCell>
        <mxCell id="3dit7GDhFKGcdMsa8iTQ-80" value="" style="edgeStyle=orthogonalEdgeStyle;rounded=0;orthogonalLoop=1;jettySize=auto;html=1;" edge="1" parent="1" source="3dit7GDhFKGcdMsa8iTQ-82" target="3dit7GDhFKGcdMsa8iTQ-79">
          <mxGeometry relative="1" as="geometry" />
        </mxCell>
        <mxCell id="vYZtWB5qguZJEZh0VH7T-14" value="No" style="edgeLabel;html=1;align=center;verticalAlign=middle;resizable=0;points=[];" vertex="1" connectable="0" parent="3dit7GDhFKGcdMsa8iTQ-80">
          <mxGeometry x="0.041" y="4" relative="1" as="geometry">
            <mxPoint x="-1" as="offset" />
          </mxGeometry>
        </mxCell>
        <mxCell id="3dit7GDhFKGcdMsa8iTQ-81" value="" style="edgeStyle=orthogonalEdgeStyle;rounded=0;orthogonalLoop=1;jettySize=auto;html=1;" edge="1" parent="1" source="3dit7GDhFKGcdMsa8iTQ-82" target="3dit7GDhFKGcdMsa8iTQ-8">
          <mxGeometry relative="1" as="geometry" />
        </mxCell>
        <mxCell id="vYZtWB5qguZJEZh0VH7T-19" value="Text" style="edgeLabel;html=1;align=center;verticalAlign=middle;resizable=0;points=[];" vertex="1" connectable="0" parent="3dit7GDhFKGcdMsa8iTQ-81">
          <mxGeometry x="-0.0269" relative="1" as="geometry">
            <mxPoint as="offset" />
          </mxGeometry>
        </mxCell>
        <mxCell id="vYZtWB5qguZJEZh0VH7T-20" value="Yes" style="edgeLabel;html=1;align=center;verticalAlign=middle;resizable=0;points=[];" vertex="1" connectable="0" parent="3dit7GDhFKGcdMsa8iTQ-81">
          <mxGeometry x="-0.0269" relative="1" as="geometry">
            <mxPoint as="offset" />
          </mxGeometry>
        </mxCell>
        <mxCell id="3dit7GDhFKGcdMsa8iTQ-82" value="Option 1" style="strokeWidth=2;html=1;shape=mxgraph.flowchart.decision;whiteSpace=wrap;" vertex="1" parent="1">
          <mxGeometry x="240" y="-5" width="100" height="100" as="geometry" />
        </mxCell>
        <mxCell id="3dit7GDhFKGcdMsa8iTQ-85" value="Option 3&lt;div&gt;End&lt;/div&gt;" style="shape=mxgraph.flowchart.terminator;strokeWidth=2;gradientColor=none;gradientDirection=north;fontStyle=0;html=1;" vertex="1" parent="1">
          <mxGeometry x="860" y="25" width="90" height="40" as="geometry" />
        </mxCell>
        <mxCell id="3dit7GDhFKGcdMsa8iTQ-86" style="edgeStyle=orthogonalEdgeStyle;rounded=0;orthogonalLoop=1;jettySize=auto;html=1;entryX=0;entryY=0.5;entryDx=0;entryDy=0;entryPerimeter=0;" edge="1" parent="1" source="3dit7GDhFKGcdMsa8iTQ-76" target="3dit7GDhFKGcdMsa8iTQ-85">
          <mxGeometry relative="1" as="geometry" />
        </mxCell>
        <mxCell id="3dit7GDhFKGcdMsa8iTQ-89" value="Show Notification: &quot;Invalid option. Please choose again.&quot;" style="rounded=1;whiteSpace=wrap;html=1;" vertex="1" parent="1">
          <mxGeometry x="55" y="1917" width="120" height="60" as="geometry" />
        </mxCell>
        <mxCell id="3dit7GDhFKGcdMsa8iTQ-90" value="Display Table vehicle&amp;nbsp;" style="rounded=1;whiteSpace=wrap;html=1;" vertex="1" parent="1">
          <mxGeometry x="240" y="580" width="120" height="60" as="geometry" />
        </mxCell>
        <mxCell id="3dit7GDhFKGcdMsa8iTQ-101" value="" style="edgeStyle=orthogonalEdgeStyle;rounded=0;orthogonalLoop=1;jettySize=auto;html=1;" edge="1" parent="1" source="3dit7GDhFKGcdMsa8iTQ-91" target="3dit7GDhFKGcdMsa8iTQ-92">
          <mxGeometry relative="1" as="geometry" />
        </mxCell>
        <mxCell id="vYZtWB5qguZJEZh0VH7T-35" value="Yes" style="edgeLabel;html=1;align=center;verticalAlign=middle;resizable=0;points=[];" vertex="1" connectable="0" parent="3dit7GDhFKGcdMsa8iTQ-101">
          <mxGeometry x="-0.0311" y="1" relative="1" as="geometry">
            <mxPoint as="offset" />
          </mxGeometry>
        </mxCell>
        <mxCell id="3dit7GDhFKGcdMsa8iTQ-108" style="edgeStyle=orthogonalEdgeStyle;rounded=0;orthogonalLoop=1;jettySize=auto;html=1;entryX=0.5;entryY=1;entryDx=0;entryDy=0;exitX=0;exitY=0.5;exitDx=0;exitDy=0;exitPerimeter=0;" edge="1" parent="1" source="3dit7GDhFKGcdMsa8iTQ-91" target="3dit7GDhFKGcdMsa8iTQ-105">
          <mxGeometry relative="1" as="geometry">
            <mxPoint x="-260" y="1360.090909090909" as="sourcePoint" />
          </mxGeometry>
        </mxCell>
        <mxCell id="vYZtWB5qguZJEZh0VH7T-34" value="No" style="edgeLabel;html=1;align=center;verticalAlign=middle;resizable=0;points=[];" vertex="1" connectable="0" parent="3dit7GDhFKGcdMsa8iTQ-108">
          <mxGeometry x="-0.383" relative="1" as="geometry">
            <mxPoint as="offset" />
          </mxGeometry>
        </mxCell>
        <mxCell id="3dit7GDhFKGcdMsa8iTQ-91" value="Does data&amp;nbsp;&lt;div&gt;Exist ?&lt;/div&gt;" style="strokeWidth=2;html=1;shape=mxgraph.flowchart.decision;whiteSpace=wrap;" vertex="1" parent="1">
          <mxGeometry x="-180" y="1310" width="100" height="100" as="geometry" />
        </mxCell>
        <mxCell id="vYZtWB5qguZJEZh0VH7T-1" style="edgeStyle=orthogonalEdgeStyle;rounded=0;orthogonalLoop=1;jettySize=auto;html=1;" edge="1" parent="1" source="3dit7GDhFKGcdMsa8iTQ-92">
          <mxGeometry relative="1" as="geometry">
            <mxPoint x="-380" y="1160" as="targetPoint" />
          </mxGeometry>
        </mxCell>
        <mxCell id="3dit7GDhFKGcdMsa8iTQ-92" value="Display Table user rental" style="whiteSpace=wrap;html=1;strokeWidth=2;" vertex="1" parent="1">
          <mxGeometry x="-190" y="1130" width="120" height="60" as="geometry" />
        </mxCell>
        <mxCell id="3dit7GDhFKGcdMsa8iTQ-110" style="edgeStyle=orthogonalEdgeStyle;rounded=0;orthogonalLoop=1;jettySize=auto;html=1;entryX=0;entryY=0.5;entryDx=0;entryDy=0;" edge="1" parent="1" source="3dit7GDhFKGcdMsa8iTQ-105" target="3dit7GDhFKGcdMsa8iTQ-11">
          <mxGeometry relative="1" as="geometry">
            <mxPoint x="-22" y="360" as="targetPoint" />
            <Array as="points">
              <mxPoint x="-380" y="360" />
            </Array>
          </mxGeometry>
        </mxCell>
        <mxCell id="3dit7GDhFKGcdMsa8iTQ-105" value="Show Notification: &quot;No rentals yet.&quot;" style="rounded=1;whiteSpace=wrap;html=1;" vertex="1" parent="1">
          <mxGeometry x="-440" y="1180" width="120" height="60" as="geometry" />
        </mxCell>
        <mxCell id="3dit7GDhFKGcdMsa8iTQ-115" style="edgeStyle=orthogonalEdgeStyle;rounded=0;orthogonalLoop=1;jettySize=auto;html=1;exitX=0;exitY=0.5;exitDx=0;exitDy=0;exitPerimeter=0;" edge="1" parent="1" source="3dit7GDhFKGcdMsa8iTQ-111">
          <mxGeometry relative="1" as="geometry">
            <mxPoint x="-380" y="1357" as="targetPoint" />
            <mxPoint x="-260" y="1550.0000000000005" as="sourcePoint" />
          </mxGeometry>
        </mxCell>
        <mxCell id="vYZtWB5qguZJEZh0VH7T-32" value="No" style="edgeLabel;html=1;align=center;verticalAlign=middle;resizable=0;points=[];" vertex="1" connectable="0" parent="3dit7GDhFKGcdMsa8iTQ-115">
          <mxGeometry x="-0.5504" y="-3" relative="1" as="geometry">
            <mxPoint as="offset" />
          </mxGeometry>
        </mxCell>
        <mxCell id="3dit7GDhFKGcdMsa8iTQ-117" style="edgeStyle=orthogonalEdgeStyle;rounded=0;orthogonalLoop=1;jettySize=auto;html=1;entryX=1;entryY=0.5;entryDx=0;entryDy=0;" edge="1" parent="1" source="3dit7GDhFKGcdMsa8iTQ-111" target="3dit7GDhFKGcdMsa8iTQ-114">
          <mxGeometry relative="1" as="geometry">
            <Array as="points">
              <mxPoint x="-130" y="1640" />
              <mxPoint x="-305" y="1640" />
            </Array>
          </mxGeometry>
        </mxCell>
        <mxCell id="vYZtWB5qguZJEZh0VH7T-33" value="Yes" style="edgeLabel;html=1;align=center;verticalAlign=middle;resizable=0;points=[];" vertex="1" connectable="0" parent="3dit7GDhFKGcdMsa8iTQ-117">
          <mxGeometry x="-0.3248" y="3" relative="1" as="geometry">
            <mxPoint as="offset" />
          </mxGeometry>
        </mxCell>
        <mxCell id="3dit7GDhFKGcdMsa8iTQ-111" value="Does data&amp;nbsp;&lt;div&gt;exist ?&lt;/div&gt;" style="strokeWidth=2;html=1;shape=mxgraph.flowchart.decision;whiteSpace=wrap;" vertex="1" parent="1">
          <mxGeometry x="-180" y="1500" width="100" height="100" as="geometry" />
        </mxCell>
        <mxCell id="3dit7GDhFKGcdMsa8iTQ-119" value="" style="edgeStyle=orthogonalEdgeStyle;rounded=0;orthogonalLoop=1;jettySize=auto;html=1;" edge="1" parent="1" source="3dit7GDhFKGcdMsa8iTQ-114" target="3dit7GDhFKGcdMsa8iTQ-118">
          <mxGeometry relative="1" as="geometry" />
        </mxCell>
        <mxCell id="3dit7GDhFKGcdMsa8iTQ-114" value="Display Table user rental" style="whiteSpace=wrap;html=1;strokeWidth=2;" vertex="1" parent="1">
          <mxGeometry x="-580" y="1610" width="120" height="60" as="geometry" />
        </mxCell>
        <mxCell id="3dit7GDhFKGcdMsa8iTQ-120" style="edgeStyle=orthogonalEdgeStyle;rounded=0;orthogonalLoop=1;jettySize=auto;html=1;exitX=0.5;exitY=0;exitDx=0;exitDy=0;" edge="1" parent="1" source="3dit7GDhFKGcdMsa8iTQ-118">
          <mxGeometry relative="1" as="geometry">
            <mxPoint x="-380" y="360" as="targetPoint" />
            <Array as="points">
              <mxPoint x="-520" y="360" />
            </Array>
          </mxGeometry>
        </mxCell>
        <mxCell id="3dit7GDhFKGcdMsa8iTQ-118" value="Input index data rent&amp;nbsp;&lt;div&gt;user want to delete&lt;/div&gt;" style="shape=parallelogram;perimeter=parallelogramPerimeter;whiteSpace=wrap;html=1;fixedSize=1;strokeWidth=2;" vertex="1" parent="1">
          <mxGeometry x="-595" y="1470" width="150" height="70" as="geometry" />
        </mxCell>
        <mxCell id="3dit7GDhFKGcdMsa8iTQ-124" value="" style="edgeStyle=orthogonalEdgeStyle;rounded=0;orthogonalLoop=1;jettySize=auto;html=1;" edge="1" parent="1" source="3dit7GDhFKGcdMsa8iTQ-122" target="3dit7GDhFKGcdMsa8iTQ-123">
          <mxGeometry relative="1" as="geometry" />
        </mxCell>
        <mxCell id="3dit7GDhFKGcdMsa8iTQ-122" value="Display Table avaliable vehicle&amp;nbsp;" style="rounded=1;whiteSpace=wrap;html=1;" vertex="1" parent="1">
          <mxGeometry x="285" y="1120" width="120" height="60" as="geometry" />
        </mxCell>
        <mxCell id="3dit7GDhFKGcdMsa8iTQ-126" value="" style="edgeStyle=orthogonalEdgeStyle;rounded=0;orthogonalLoop=1;jettySize=auto;html=1;" edge="1" parent="1" source="3dit7GDhFKGcdMsa8iTQ-123" target="3dit7GDhFKGcdMsa8iTQ-125">
          <mxGeometry relative="1" as="geometry" />
        </mxCell>
        <mxCell id="3dit7GDhFKGcdMsa8iTQ-123" value="admin Input index&amp;nbsp;&lt;div&gt;data&amp;nbsp;&lt;span style=&quot;background-color: initial;&quot;&gt;vehicle&amp;nbsp;&lt;/span&gt;&lt;div&gt;&lt;div&gt;&amp;nbsp;want to update&lt;/div&gt;&lt;/div&gt;&lt;/div&gt;" style="shape=parallelogram;perimeter=parallelogramPerimeter;whiteSpace=wrap;html=1;fixedSize=1;strokeWidth=2;" vertex="1" parent="1">
          <mxGeometry x="270" y="1250" width="150" height="70" as="geometry" />
        </mxCell>
        <mxCell id="3dit7GDhFKGcdMsa8iTQ-135" value="" style="edgeStyle=orthogonalEdgeStyle;rounded=0;orthogonalLoop=1;jettySize=auto;html=1;" edge="1" parent="1" source="3dit7GDhFKGcdMsa8iTQ-125" target="3dit7GDhFKGcdMsa8iTQ-134">
          <mxGeometry relative="1" as="geometry" />
        </mxCell>
        <mxCell id="3dit7GDhFKGcdMsa8iTQ-125" value="Does data&amp;nbsp;&lt;div&gt;exist ?&lt;/div&gt;" style="strokeWidth=2;html=1;shape=mxgraph.flowchart.decision;whiteSpace=wrap;" vertex="1" parent="1">
          <mxGeometry x="295" y="1390" width="100" height="100" as="geometry" />
        </mxCell>
        <mxCell id="3dit7GDhFKGcdMsa8iTQ-132" style="edgeStyle=orthogonalEdgeStyle;rounded=0;orthogonalLoop=1;jettySize=auto;html=1;exitX=0.5;exitY=0;exitDx=0;exitDy=0;" edge="1" parent="1" source="3dit7GDhFKGcdMsa8iTQ-130" target="3dit7GDhFKGcdMsa8iTQ-123">
          <mxGeometry relative="1" as="geometry" />
        </mxCell>
        <mxCell id="3dit7GDhFKGcdMsa8iTQ-130" value="Show Notification: &quot;Input the correct answer&quot;" style="rounded=1;whiteSpace=wrap;html=1;" vertex="1" parent="1">
          <mxGeometry x="475" y="1320" width="120" height="60" as="geometry" />
        </mxCell>
        <mxCell id="3dit7GDhFKGcdMsa8iTQ-131" style="edgeStyle=orthogonalEdgeStyle;rounded=0;orthogonalLoop=1;jettySize=auto;html=1;entryX=0.582;entryY=1.001;entryDx=0;entryDy=0;entryPerimeter=0;" edge="1" parent="1" source="3dit7GDhFKGcdMsa8iTQ-125" target="3dit7GDhFKGcdMsa8iTQ-130">
          <mxGeometry relative="1" as="geometry" />
        </mxCell>
        <mxCell id="3dit7GDhFKGcdMsa8iTQ-133" value="No" style="edgeLabel;html=1;align=center;verticalAlign=middle;resizable=0;points=[];" vertex="1" connectable="0" parent="3dit7GDhFKGcdMsa8iTQ-131">
          <mxGeometry x="-0.284" y="1" relative="1" as="geometry">
            <mxPoint as="offset" />
          </mxGeometry>
        </mxCell>
        <mxCell id="3dit7GDhFKGcdMsa8iTQ-138" value="" style="edgeStyle=orthogonalEdgeStyle;rounded=0;orthogonalLoop=1;jettySize=auto;html=1;" edge="1" parent="1" source="3dit7GDhFKGcdMsa8iTQ-134" target="3dit7GDhFKGcdMsa8iTQ-136">
          <mxGeometry relative="1" as="geometry" />
        </mxCell>
        <mxCell id="3dit7GDhFKGcdMsa8iTQ-134" value="Input the new stock or press enter to skip" style="shape=parallelogram;perimeter=parallelogramPerimeter;whiteSpace=wrap;html=1;fixedSize=1;strokeWidth=2;" vertex="1" parent="1">
          <mxGeometry x="270" y="1560" width="150" height="70" as="geometry" />
        </mxCell>
        <mxCell id="3dit7GDhFKGcdMsa8iTQ-139" style="edgeStyle=orthogonalEdgeStyle;rounded=0;orthogonalLoop=1;jettySize=auto;html=1;entryX=1;entryY=0.75;entryDx=0;entryDy=0;exitX=1;exitY=0.5;exitDx=0;exitDy=0;" edge="1" parent="1" source="3dit7GDhFKGcdMsa8iTQ-136" target="3dit7GDhFKGcdMsa8iTQ-11">
          <mxGeometry relative="1" as="geometry">
            <Array as="points">
              <mxPoint x="645" y="1600" />
              <mxPoint x="810" y="1600" />
              <mxPoint x="810" y="375" />
            </Array>
          </mxGeometry>
        </mxCell>
        <mxCell id="3dit7GDhFKGcdMsa8iTQ-136" value="Input the new price or press enter to skip" style="shape=parallelogram;perimeter=parallelogramPerimeter;whiteSpace=wrap;html=1;fixedSize=1;strokeWidth=2;" vertex="1" parent="1">
          <mxGeometry x="505" y="1560" width="150" height="70" as="geometry" />
        </mxCell>
        <mxCell id="3dit7GDhFKGcdMsa8iTQ-143" value="" style="edgeStyle=orthogonalEdgeStyle;rounded=0;orthogonalLoop=1;jettySize=auto;html=1;" edge="1" parent="1" source="3dit7GDhFKGcdMsa8iTQ-141" target="3dit7GDhFKGcdMsa8iTQ-142">
          <mxGeometry relative="1" as="geometry" />
        </mxCell>
        <mxCell id="3dit7GDhFKGcdMsa8iTQ-141" value="Display Table avaliable vehicle&amp;nbsp;" style="rounded=1;whiteSpace=wrap;html=1;" vertex="1" parent="1">
          <mxGeometry x="260" y="940" width="120" height="60" as="geometry" />
        </mxCell>
        <mxCell id="3dit7GDhFKGcdMsa8iTQ-145" value="" style="edgeStyle=orthogonalEdgeStyle;rounded=0;orthogonalLoop=1;jettySize=auto;html=1;" edge="1" parent="1" source="3dit7GDhFKGcdMsa8iTQ-142" target="3dit7GDhFKGcdMsa8iTQ-144">
          <mxGeometry relative="1" as="geometry" />
        </mxCell>
        <mxCell id="3dit7GDhFKGcdMsa8iTQ-142" value="admin Input index&amp;nbsp;&lt;div&gt;data&amp;nbsp;&lt;span style=&quot;background-color: initial;&quot;&gt;vehicle&amp;nbsp;&lt;/span&gt;&lt;div&gt;&lt;div&gt;&amp;nbsp;want to delete&lt;/div&gt;&lt;/div&gt;&lt;/div&gt;" style="shape=parallelogram;perimeter=parallelogramPerimeter;whiteSpace=wrap;html=1;fixedSize=1;strokeWidth=2;" vertex="1" parent="1">
          <mxGeometry x="435" y="935" width="150" height="70" as="geometry" />
        </mxCell>
        <mxCell id="3dit7GDhFKGcdMsa8iTQ-147" value="" style="edgeStyle=orthogonalEdgeStyle;rounded=0;orthogonalLoop=1;jettySize=auto;html=1;" edge="1" parent="1" source="3dit7GDhFKGcdMsa8iTQ-144" target="3dit7GDhFKGcdMsa8iTQ-146">
          <mxGeometry relative="1" as="geometry" />
        </mxCell>
        <mxCell id="vYZtWB5qguZJEZh0VH7T-37" value="No" style="edgeLabel;html=1;align=center;verticalAlign=middle;resizable=0;points=[];" vertex="1" connectable="0" parent="3dit7GDhFKGcdMsa8iTQ-147">
          <mxGeometry x="-0.1098" y="-1" relative="1" as="geometry">
            <mxPoint as="offset" />
          </mxGeometry>
        </mxCell>
        <mxCell id="3dit7GDhFKGcdMsa8iTQ-149" style="edgeStyle=orthogonalEdgeStyle;rounded=0;orthogonalLoop=1;jettySize=auto;html=1;entryX=1;entryY=1;entryDx=0;entryDy=0;" edge="1" parent="1" source="3dit7GDhFKGcdMsa8iTQ-144" target="3dit7GDhFKGcdMsa8iTQ-11">
          <mxGeometry relative="1" as="geometry">
            <Array as="points">
              <mxPoint x="680" y="390" />
            </Array>
          </mxGeometry>
        </mxCell>
        <mxCell id="vYZtWB5qguZJEZh0VH7T-36" value="Yes" style="edgeLabel;html=1;align=center;verticalAlign=middle;resizable=0;points=[];" vertex="1" connectable="0" parent="3dit7GDhFKGcdMsa8iTQ-149">
          <mxGeometry x="-0.4828" y="3" relative="1" as="geometry">
            <mxPoint as="offset" />
          </mxGeometry>
        </mxCell>
        <mxCell id="3dit7GDhFKGcdMsa8iTQ-144" value="Does data&amp;nbsp;&lt;div&gt;exist ?&lt;/div&gt;" style="strokeWidth=2;html=1;shape=mxgraph.flowchart.decision;whiteSpace=wrap;" vertex="1" parent="1">
          <mxGeometry x="630" y="920" width="100" height="100" as="geometry" />
        </mxCell>
        <mxCell id="3dit7GDhFKGcdMsa8iTQ-146" value="Show Notification: &quot;Input the correct answer&quot;" style="rounded=1;whiteSpace=wrap;html=1;" vertex="1" parent="1">
          <mxGeometry x="620" y="1085" width="120" height="60" as="geometry" />
        </mxCell>
        <mxCell id="3dit7GDhFKGcdMsa8iTQ-148" style="edgeStyle=orthogonalEdgeStyle;rounded=0;orthogonalLoop=1;jettySize=auto;html=1;entryX=0.426;entryY=1.074;entryDx=0;entryDy=0;entryPerimeter=0;" edge="1" parent="1" source="3dit7GDhFKGcdMsa8iTQ-146" target="3dit7GDhFKGcdMsa8iTQ-142">
          <mxGeometry relative="1" as="geometry" />
        </mxCell>
        <mxCell id="3dit7GDhFKGcdMsa8iTQ-157" value="" style="edgeStyle=orthogonalEdgeStyle;rounded=0;orthogonalLoop=1;jettySize=auto;html=1;" edge="1" parent="1" source="3dit7GDhFKGcdMsa8iTQ-150" target="3dit7GDhFKGcdMsa8iTQ-151">
          <mxGeometry relative="1" as="geometry" />
        </mxCell>
        <mxCell id="3dit7GDhFKGcdMsa8iTQ-150" value="admin input brand&amp;nbsp;&lt;br&gt;&lt;div&gt;&lt;span style=&quot;color: rgba(0, 0, 0, 0); font-family: monospace; font-size: 0px; text-align: start; text-wrap: nowrap; background-color: initial;&quot;&gt;%3CmxGraphModel%3E%3Croot%3E%3CmxCell%20id%3D%220%22%2F%3E%3CmxCell%20id%3D%221%22%20parent%3D%220%22%2F%3E%3CmxCell%20id%3D%222%22%20value%3D%22admin%20Input%20index%26amp%3Bnbsp%3B%26lt%3Bdiv%26gt%3Bdata%26amp%3Bnbsp%3B%26lt%3Bspan%20style%3D%26quot%3Bbackground-color%3A%20initial%3B%26quot%3B%26gt%3Bvehicle%26amp%3Bnbsp%3B%26lt%3B%2Fspan%26gt%3B%26lt%3Bdiv%26gt%3B%26lt%3Bdiv%26gt%3B%26amp%3Bnbsp%3Bwant%20to%20delete%26lt%3B%2Fdiv%26gt%3B%26lt%3B%2Fdiv%26gt%3B%26lt%3B%2Fdiv%26gt%3B%22%20style%3D%22shape%3Dparallelogram%3Bperimeter%3DparallelogramPerimeter%3BwhiteSpace%3Dwrap%3Bhtml%3D1%3BfixedSize%3D1%3BstrokeWidth%3D2%3B%22%20vertex%3D%221%22%20parent%3D%221%22%3E%3CmxGeometry%20x%3D%22435%22%20y%3D%22935%22%20width%3D%22150%22%20height%3D%2270%22%20as%3D%22geometry%22%2F%3E%3C%2FmxCell%3E%3C%2Froot%3E%3C%2FmxGraphModel%3E&lt;/span&gt;name vehicle&lt;/div&gt;" style="shape=parallelogram;perimeter=parallelogramPerimeter;whiteSpace=wrap;html=1;fixedSize=1;strokeWidth=2;" vertex="1" parent="1">
          <mxGeometry x="-140" y="745" width="150" height="70" as="geometry" />
        </mxCell>
        <mxCell id="3dit7GDhFKGcdMsa8iTQ-158" value="" style="edgeStyle=orthogonalEdgeStyle;rounded=0;orthogonalLoop=1;jettySize=auto;html=1;" edge="1" parent="1" source="3dit7GDhFKGcdMsa8iTQ-151" target="3dit7GDhFKGcdMsa8iTQ-153">
          <mxGeometry relative="1" as="geometry" />
        </mxCell>
        <mxCell id="3dit7GDhFKGcdMsa8iTQ-151" value="admin input model&lt;br&gt;&lt;div&gt;&lt;span style=&quot;color: rgba(0, 0, 0, 0); font-family: monospace; font-size: 0px; text-align: start; text-wrap: nowrap; background-color: initial;&quot;&gt;%3CmxGraphModel%3E%3Croot%3E%3CmxCell%20id%3D%220%22%2F%3E%3CmxCell%20id%3D%221%22%20parent%3D%220%22%2F%3E%3CmxCell%20id%3D%222%22%20value%3D%22admin%20Input%20index%26amp%3Bnbsp%3B%26lt%3Bdiv%26gt%3Bdata%26amp%3Bnbsp%3B%26lt%3Bspan%20style%3D%26quot%3Bbackground-color%3A%20initial%3B%26quot%3B%26gt%3Bvehicle%26amp%3Bnbsp%3B%26lt%3B%2Fspan%26gt%3B%26lt%3Bdiv%26gt%3B%26lt%3Bdiv%26gt%3B%26amp%3Bnbsp%3Bwant%20to%20delete%26lt%3B%2Fdiv%26gt%3B%26lt%3B%2Fdiv%26gt%3B%26lt%3B%2Fdiv%26gt%3B%22%20style%3D%22shape%3Dparallelogram%3Bperimeter%3DparallelogramPerimeter%3BwhiteSpace%3Dwrap%3Bhtml%3D1%3BfixedSize%3D1%3BstrokeWidth%3D2%3B%22%20vertex%3D%221%22%20parent%3D%221%22%3E%3CmxGeometry%20x%3D%22435%22%20y%3D%22935%22%20width%3D%22150%22%20height%3D%2270%22%20as%3D%22geometry%22%2F%3E%3C%2FmxCell%3E%3C%2Froot%3E%3C%2FmxGraphModel%3E&lt;/span&gt;name vehicle&lt;/div&gt;" style="shape=parallelogram;perimeter=parallelogramPerimeter;whiteSpace=wrap;html=1;fixedSize=1;strokeWidth=2;" vertex="1" parent="1">
          <mxGeometry x="-140" y="910" width="150" height="70" as="geometry" />
        </mxCell>
        <mxCell id="3dit7GDhFKGcdMsa8iTQ-159" value="" style="edgeStyle=orthogonalEdgeStyle;rounded=0;orthogonalLoop=1;jettySize=auto;html=1;" edge="1" parent="1" source="3dit7GDhFKGcdMsa8iTQ-153" target="3dit7GDhFKGcdMsa8iTQ-154">
          <mxGeometry relative="1" as="geometry" />
        </mxCell>
        <mxCell id="3dit7GDhFKGcdMsa8iTQ-153" value="admin input stock&lt;div&gt;of&amp;nbsp;&lt;span style=&quot;background-color: initial; text-wrap: nowrap; color: rgba(0, 0, 0, 0); font-family: monospace; font-size: 0px; text-align: start;&quot;&gt;%3CmxGraphModel%3E%3Croot%3E%3CmxCell%20id%3D%220%22%2F%3E%3CmxCell%20id%3D%221%22%20parent%3D%220%22%2F%3E%3CmxCell%20id%3D%222%22%20value%3D%22admin%20Input%20index%26amp%3Bnbsp%3B%26lt%3Bdiv%26gt%3Bdata%26amp%3Bnbsp%3B%26lt%3Bspan%20style%3D%26quot%3Bbackground-color%3A%20initial%3B%26quot%3B%26gt%3Bvehicle%26amp%3Bnbsp%3B%26lt%3B%2Fspan%26gt%3B%26lt%3Bdiv%26gt%3B%26lt%3Bdiv%26gt%3B%26amp%3Bnbsp%3Bwant%20to%20delete%26lt%3B%2Fdiv%26gt%3B%26lt%3B%2Fdiv%26gt%3B%26lt%3B%2Fdiv%26gt%3B%22%20style%3D%22shape%3Dparallelogram%3Bperimeter%3DparallelogramPerimeter%3BwhiteSpace%3Dwrap%3Bhtml%3D1%3BfixedSize%3D1%3BstrokeWidth%3D2%3B%22%20vertex%3D%221%22%20parent%3D%221%22%3E%3CmxGeometry%20x%3D%22435%22%20y%3D%22935%22%20width%3D%22150%22%20height%3D%2270%22%20as%3D%22geometry%22%2F%3E%3C%2FmxCell%3E%3C%2Froot%3E%3C%2FmxGraphModel%ofof&lt;/span&gt;&lt;span style=&quot;background-color: initial;&quot;&gt;vehicle&lt;/span&gt;&lt;/div&gt;" style="shape=parallelogram;perimeter=parallelogramPerimeter;whiteSpace=wrap;html=1;fixedSize=1;strokeWidth=2;" vertex="1" parent="1">
          <mxGeometry x="-350" y="910" width="150" height="70" as="geometry" />
        </mxCell>
        <mxCell id="3dit7GDhFKGcdMsa8iTQ-160" value="" style="edgeStyle=orthogonalEdgeStyle;rounded=0;orthogonalLoop=1;jettySize=auto;html=1;" edge="1" parent="1" source="3dit7GDhFKGcdMsa8iTQ-154" target="3dit7GDhFKGcdMsa8iTQ-155">
          <mxGeometry relative="1" as="geometry" />
        </mxCell>
        <mxCell id="3dit7GDhFKGcdMsa8iTQ-154" value="admin input amount of wheels 4/2&lt;span style=&quot;background-color: initial;&quot;&gt;&amp;nbsp;&lt;/span&gt;&lt;span style=&quot;background-color: initial; text-wrap: nowrap; color: rgba(0, 0, 0, 0); font-family: monospace; font-size: 0px; text-align: start;&quot;&gt;%3CmxGraphModel%3E%3Croot%3E%3CmxCell%20id%3D%220%22%2F%3E%3CmxCell%20id%3D%221%22%20parent%3D%220%22%2F%3E%3CmxCell%20id%3D%222%22%20value%3D%22admin%20Input%20index%26amp%3Bnbsp%3B%26lt%3Bdiv%26gt%3Bdata%26amp%3Bnbsp%3B%26lt%3Bspan%20style%3D%26quot%3Bbackground-color%3A%20initial%3B%26quot%3B%26gt%3Bvehicle%26amp%3Bnbsp%3B%26lt%3B%2Fspan%26gt%3B%26lt%3Bdiv%26gt%3B%26lt%3Bdiv%26gt%3B%26amp%3Bnbsp%3Bwant%20to%20delete%26lt%3B%2Fdiv%26gt%3B%26lt%3B%2Fdiv%26gt%3B%26lt%3B%2Fdiv%26gt%3B%22%20style%3D%22shape%3Dparallelogram%3Bperimeter%3DparallelogramPerimeter%3BwhiteSpace%3Dwrap%3Bhtml%3D1%3BfixedSize%3D1%3BstrokeWidth%3D2%3B%22%20vertex%3D%221%22%20parent%3D%221%22%3E%3CmxGeometry%20x%3D%22435%22%20y%3D%22935%22%20width%3D%22150%22%20height%3D%2270%22%20as%3D%22geometry%22%2F%3E%3C%2FmxCell%3E%3C%2Froot%3E%3C&lt;/span&gt;" style="shape=parallelogram;perimeter=parallelogramPerimeter;whiteSpace=wrap;html=1;fixedSize=1;strokeWidth=2;" vertex="1" parent="1">
          <mxGeometry x="-350" y="760" width="150" height="70" as="geometry" />
        </mxCell>
        <mxCell id="3dit7GDhFKGcdMsa8iTQ-161" style="edgeStyle=orthogonalEdgeStyle;rounded=0;orthogonalLoop=1;jettySize=auto;html=1;entryX=0;entryY=1;entryDx=0;entryDy=0;" edge="1" parent="1" source="3dit7GDhFKGcdMsa8iTQ-155" target="3dit7GDhFKGcdMsa8iTQ-11">
          <mxGeometry relative="1" as="geometry">
            <Array as="points">
              <mxPoint x="-275" y="390" />
            </Array>
          </mxGeometry>
        </mxCell>
        <mxCell id="3dit7GDhFKGcdMsa8iTQ-155" value="admin input price&lt;div&gt;of&amp;nbsp;&lt;span style=&quot;background-color: initial; text-wrap: nowrap; color: rgba(0, 0, 0, 0); font-family: monospace; font-size: 0px; text-align: start;&quot;&gt;%3CmxGraphModel%3E%3Croot%3E%3CmxCell%20id%3D%220%22%2F%3E%3CmxCell%20id%3D%221%22%20parent%3D%220%22%2F%3E%3CmxCell%20id%3D%222%22%20value%3D%22admin%20Input%20index%26amp%3Bnbsp%3B%26lt%3Bdiv%26gt%3Bdata%26amp%3Bnbsp%3B%26lt%3Bspan%20style%3D%26quot%3Bbackground-color%3A%20initial%3B%26quot%3B%26gt%3Bvehicle%26amp%3Bnbsp%3B%26lt%3B%2Fspan%26gt%3B%26lt%3Bdiv%26gt%3B%26lt%3Bdiv%26gt%3B%26amp%3Bnbsp%3Bwant%20to%20delete%26lt%3B%2Fdiv%26gt%3B%26lt%3B%2Fdiv%26gt%3B%26lt%3B%2Fdiv%26gt%3B%22%20style%3D%22shape%3Dparallelogram%3Bperimeter%3DparallelogramPerimeter%3BwhiteSpace%3Dwrap%3Bhtml%3D1%3BfixedSize%3D1%3BstrokeWidth%3D2%3B%22%20vertex%3D%221%22%20parent%3D%221%22%3E%3CmxGeometry%20x%3D%22435%22%20y%3D%22935%22%20width%3D%22150%22%20height%3D%2270%22%20as%3D%22geometry%22%2F%3E%3C%2FmxCell%3E%3C%2Froot%3E%3C%2FmxGraphModel%ofof&lt;/span&gt;&lt;span style=&quot;background-color: initial;&quot;&gt;vehicle&lt;/span&gt;&lt;/div&gt;" style="shape=parallelogram;perimeter=parallelogramPerimeter;whiteSpace=wrap;html=1;fixedSize=1;strokeWidth=2;" vertex="1" parent="1">
          <mxGeometry x="-350" y="610" width="150" height="70" as="geometry" />
        </mxCell>
        <mxCell id="3dit7GDhFKGcdMsa8iTQ-165" style="edgeStyle=orthogonalEdgeStyle;rounded=0;orthogonalLoop=1;jettySize=auto;html=1;entryX=1;entryY=0.5;entryDx=0;entryDy=0;exitX=0.5;exitY=0;exitDx=0;exitDy=0;" edge="1" parent="1" source="3dit7GDhFKGcdMsa8iTQ-163" target="3dit7GDhFKGcdMsa8iTQ-13">
          <mxGeometry relative="1" as="geometry">
            <Array as="points">
              <mxPoint x="1339" y="360" />
            </Array>
          </mxGeometry>
        </mxCell>
        <mxCell id="3dit7GDhFKGcdMsa8iTQ-163" value="Display Table vehicle&amp;nbsp;" style="rounded=1;whiteSpace=wrap;html=1;" vertex="1" parent="1">
          <mxGeometry x="1279" y="480" width="120" height="60" as="geometry" />
        </mxCell>
        <mxCell id="3dit7GDhFKGcdMsa8iTQ-168" value="" style="edgeStyle=orthogonalEdgeStyle;rounded=0;orthogonalLoop=1;jettySize=auto;html=1;" edge="1" parent="1" source="3dit7GDhFKGcdMsa8iTQ-166" target="3dit7GDhFKGcdMsa8iTQ-167">
          <mxGeometry relative="1" as="geometry" />
        </mxCell>
        <mxCell id="3dit7GDhFKGcdMsa8iTQ-166" value="Display Table vehicle&amp;nbsp;" style="rounded=1;whiteSpace=wrap;html=1;" vertex="1" parent="1">
          <mxGeometry x="1279" y="710" width="120" height="60" as="geometry" />
        </mxCell>
        <mxCell id="3dit7GDhFKGcdMsa8iTQ-170" value="" style="edgeStyle=orthogonalEdgeStyle;rounded=0;orthogonalLoop=1;jettySize=auto;html=1;" edge="1" parent="1" source="3dit7GDhFKGcdMsa8iTQ-167" target="3dit7GDhFKGcdMsa8iTQ-169">
          <mxGeometry relative="1" as="geometry" />
        </mxCell>
        <mxCell id="3dit7GDhFKGcdMsa8iTQ-167" value="user Input index&amp;nbsp;&lt;div&gt;data&amp;nbsp;&lt;span style=&quot;background-color: initial;&quot;&gt;vehicle&amp;nbsp;&lt;/span&gt;&lt;div&gt;&lt;div&gt;&amp;nbsp;want to delete&lt;/div&gt;&lt;/div&gt;&lt;/div&gt;" style="shape=parallelogram;perimeter=parallelogramPerimeter;whiteSpace=wrap;html=1;fixedSize=1;strokeWidth=2;" vertex="1" parent="1">
          <mxGeometry x="1460" y="706" width="150" height="70" as="geometry" />
        </mxCell>
        <mxCell id="3dit7GDhFKGcdMsa8iTQ-172" value="" style="edgeStyle=orthogonalEdgeStyle;rounded=0;orthogonalLoop=1;jettySize=auto;html=1;" edge="1" parent="1" source="3dit7GDhFKGcdMsa8iTQ-169" target="3dit7GDhFKGcdMsa8iTQ-171">
          <mxGeometry relative="1" as="geometry" />
        </mxCell>
        <mxCell id="3dit7GDhFKGcdMsa8iTQ-175" value="" style="edgeStyle=orthogonalEdgeStyle;rounded=0;orthogonalLoop=1;jettySize=auto;html=1;" edge="1" parent="1" source="3dit7GDhFKGcdMsa8iTQ-169" target="3dit7GDhFKGcdMsa8iTQ-174">
          <mxGeometry relative="1" as="geometry" />
        </mxCell>
        <mxCell id="3dit7GDhFKGcdMsa8iTQ-169" value="Does data exist ?" style="rhombus;whiteSpace=wrap;html=1;strokeWidth=2;" vertex="1" parent="1">
          <mxGeometry x="1690" y="701.5" width="80" height="80" as="geometry" />
        </mxCell>
        <mxCell id="3dit7GDhFKGcdMsa8iTQ-173" style="edgeStyle=orthogonalEdgeStyle;rounded=0;orthogonalLoop=1;jettySize=auto;html=1;entryX=0.5;entryY=0;entryDx=0;entryDy=0;" edge="1" parent="1" source="3dit7GDhFKGcdMsa8iTQ-171" target="3dit7GDhFKGcdMsa8iTQ-166">
          <mxGeometry relative="1" as="geometry" />
        </mxCell>
        <mxCell id="3dit7GDhFKGcdMsa8iTQ-171" value="Display message &quot;Input the correct answer !!&quot;" style="whiteSpace=wrap;html=1;strokeWidth=2;" vertex="1" parent="1">
          <mxGeometry x="1670" y="550" width="120" height="60" as="geometry" />
        </mxCell>
        <mxCell id="3dit7GDhFKGcdMsa8iTQ-177" value="" style="edgeStyle=orthogonalEdgeStyle;rounded=0;orthogonalLoop=1;jettySize=auto;html=1;" edge="1" parent="1" source="3dit7GDhFKGcdMsa8iTQ-174" target="3dit7GDhFKGcdMsa8iTQ-176">
          <mxGeometry relative="1" as="geometry" />
        </mxCell>
        <mxCell id="3dit7GDhFKGcdMsa8iTQ-174" value="user Input the amount&amp;nbsp;&lt;div&gt;of&amp;nbsp;&lt;span style=&quot;background-color: initial;&quot;&gt;vehiclde&lt;/span&gt;&lt;/div&gt;" style="shape=parallelogram;perimeter=parallelogramPerimeter;whiteSpace=wrap;html=1;fixedSize=1;strokeWidth=2;" vertex="1" parent="1">
          <mxGeometry x="1840" y="707.5" width="150" height="70" as="geometry" />
        </mxCell>
        <mxCell id="3dit7GDhFKGcdMsa8iTQ-179" value="" style="edgeStyle=orthogonalEdgeStyle;rounded=0;orthogonalLoop=1;jettySize=auto;html=1;" edge="1" parent="1" source="3dit7GDhFKGcdMsa8iTQ-176" target="3dit7GDhFKGcdMsa8iTQ-178">
          <mxGeometry relative="1" as="geometry" />
        </mxCell>
        <mxCell id="3dit7GDhFKGcdMsa8iTQ-176" value="Input start date rent&lt;div&gt;and end date rent&lt;/div&gt;" style="shape=parallelogram;perimeter=parallelogramPerimeter;whiteSpace=wrap;html=1;fixedSize=1;strokeWidth=2;" vertex="1" parent="1">
          <mxGeometry x="2090" y="704.5" width="135" height="75" as="geometry" />
        </mxCell>
        <mxCell id="3dit7GDhFKGcdMsa8iTQ-181" value="" style="edgeStyle=orthogonalEdgeStyle;rounded=0;orthogonalLoop=1;jettySize=auto;html=1;" edge="1" parent="1" source="3dit7GDhFKGcdMsa8iTQ-178" target="3dit7GDhFKGcdMsa8iTQ-180">
          <mxGeometry relative="1" as="geometry" />
        </mxCell>
        <mxCell id="3dit7GDhFKGcdMsa8iTQ-178" value="Display table user order" style="whiteSpace=wrap;html=1;strokeWidth=2;" vertex="1" parent="1">
          <mxGeometry x="2290" y="712.5" width="120" height="60" as="geometry" />
        </mxCell>
        <mxCell id="3dit7GDhFKGcdMsa8iTQ-182" style="edgeStyle=orthogonalEdgeStyle;rounded=0;orthogonalLoop=1;jettySize=auto;html=1;entryX=0.5;entryY=1;entryDx=0;entryDy=0;" edge="1" parent="1" source="3dit7GDhFKGcdMsa8iTQ-180" target="3dit7GDhFKGcdMsa8iTQ-166">
          <mxGeometry relative="1" as="geometry" />
        </mxCell>
        <mxCell id="3dit7GDhFKGcdMsa8iTQ-196" value="" style="edgeStyle=orthogonalEdgeStyle;rounded=0;orthogonalLoop=1;jettySize=auto;html=1;" edge="1" parent="1" source="3dit7GDhFKGcdMsa8iTQ-180" target="3dit7GDhFKGcdMsa8iTQ-183">
          <mxGeometry relative="1" as="geometry" />
        </mxCell>
        <mxCell id="3dit7GDhFKGcdMsa8iTQ-180" value="Want to make&lt;div&gt;another transaction&lt;/div&gt;" style="rhombus;whiteSpace=wrap;html=1;strokeWidth=2;" vertex="1" parent="1">
          <mxGeometry x="2290" y="822.5" width="120" height="117.5" as="geometry" />
        </mxCell>
        <mxCell id="3dit7GDhFKGcdMsa8iTQ-197" value="" style="edgeStyle=orthogonalEdgeStyle;rounded=0;orthogonalLoop=1;jettySize=auto;html=1;" edge="1" parent="1" source="3dit7GDhFKGcdMsa8iTQ-183" target="3dit7GDhFKGcdMsa8iTQ-186">
          <mxGeometry relative="1" as="geometry" />
        </mxCell>
        <mxCell id="3dit7GDhFKGcdMsa8iTQ-183" value="User Input money" style="shape=parallelogram;perimeter=parallelogramPerimeter;whiteSpace=wrap;html=1;fixedSize=1;" vertex="1" parent="1">
          <mxGeometry x="2290" y="980" width="120" height="60" as="geometry" />
        </mxCell>
        <mxCell id="3dit7GDhFKGcdMsa8iTQ-198" value="" style="edgeStyle=orthogonalEdgeStyle;rounded=0;orthogonalLoop=1;jettySize=auto;html=1;" edge="1" parent="1" source="3dit7GDhFKGcdMsa8iTQ-186" target="3dit7GDhFKGcdMsa8iTQ-188">
          <mxGeometry relative="1" as="geometry" />
        </mxCell>
        <mxCell id="3dit7GDhFKGcdMsa8iTQ-186" value="Count change" style="whiteSpace=wrap;html=1;aspect=fixed;" vertex="1" parent="1">
          <mxGeometry x="2310" y="1080" width="80" height="80" as="geometry" />
        </mxCell>
        <mxCell id="3dit7GDhFKGcdMsa8iTQ-199" value="" style="edgeStyle=orthogonalEdgeStyle;rounded=0;orthogonalLoop=1;jettySize=auto;html=1;" edge="1" parent="1" source="3dit7GDhFKGcdMsa8iTQ-188" target="3dit7GDhFKGcdMsa8iTQ-191">
          <mxGeometry relative="1" as="geometry" />
        </mxCell>
        <mxCell id="3dit7GDhFKGcdMsa8iTQ-188" value="If user&amp;nbsp;&lt;div&gt;money &amp;lt; cost&lt;/div&gt;" style="rhombus;whiteSpace=wrap;html=1;" vertex="1" parent="1">
          <mxGeometry x="2150" y="1080" width="90" height="80" as="geometry" />
        </mxCell>
        <mxCell id="3dit7GDhFKGcdMsa8iTQ-200" value="" style="edgeStyle=orthogonalEdgeStyle;rounded=0;orthogonalLoop=1;jettySize=auto;html=1;" edge="1" parent="1" source="3dit7GDhFKGcdMsa8iTQ-191" target="3dit7GDhFKGcdMsa8iTQ-193">
          <mxGeometry relative="1" as="geometry" />
        </mxCell>
        <mxCell id="3dit7GDhFKGcdMsa8iTQ-191" value="If user&amp;nbsp;&lt;div&gt;money &amp;gt; or = cost&lt;/div&gt;" style="rhombus;whiteSpace=wrap;html=1;" vertex="1" parent="1">
          <mxGeometry x="1990" y="1079" width="80" height="80" as="geometry" />
        </mxCell>
        <mxCell id="3dit7GDhFKGcdMsa8iTQ-203" value="" style="edgeStyle=orthogonalEdgeStyle;rounded=0;orthogonalLoop=1;jettySize=auto;html=1;" edge="1" parent="1" source="3dit7GDhFKGcdMsa8iTQ-193" target="3dit7GDhFKGcdMsa8iTQ-202">
          <mxGeometry relative="1" as="geometry" />
        </mxCell>
        <mxCell id="3dit7GDhFKGcdMsa8iTQ-193" value="Mssage &quot;Thank you&quot;" style="whiteSpace=wrap;html=1;" vertex="1" parent="1">
          <mxGeometry x="1970" y="1240" width="120" height="60" as="geometry" />
        </mxCell>
        <mxCell id="3dit7GDhFKGcdMsa8iTQ-204" style="edgeStyle=orthogonalEdgeStyle;rounded=0;orthogonalLoop=1;jettySize=auto;html=1;entryX=1;entryY=0.25;entryDx=0;entryDy=0;" edge="1" parent="1" source="3dit7GDhFKGcdMsa8iTQ-202" target="3dit7GDhFKGcdMsa8iTQ-13">
          <mxGeometry relative="1" as="geometry">
            <mxPoint x="2480" y="190" as="targetPoint" />
            <Array as="points">
              <mxPoint x="2480" y="1270" />
              <mxPoint x="2480" y="345" />
            </Array>
          </mxGeometry>
        </mxCell>
        <mxCell id="3dit7GDhFKGcdMsa8iTQ-202" value="Display table user order" style="whiteSpace=wrap;html=1;strokeWidth=2;" vertex="1" parent="1">
          <mxGeometry x="2170" y="1240" width="120" height="60" as="geometry" />
        </mxCell>
        <mxCell id="3dit7GDhFKGcdMsa8iTQ-206" style="edgeStyle=orthogonalEdgeStyle;rounded=0;orthogonalLoop=1;jettySize=auto;html=1;" edge="1" parent="1">
          <mxGeometry relative="1" as="geometry">
            <mxPoint x="2480" y="1260" as="targetPoint" />
            <mxPoint x="1360" y="1160" as="sourcePoint" />
            <Array as="points">
              <mxPoint x="1360" y="1370" />
              <mxPoint x="2480" y="1370" />
            </Array>
          </mxGeometry>
        </mxCell>
        <mxCell id="3dit7GDhFKGcdMsa8iTQ-205" value="Display table user order" style="whiteSpace=wrap;html=1;strokeWidth=2;" vertex="1" parent="1">
          <mxGeometry x="1300" y="1110" width="120" height="60" as="geometry" />
        </mxCell>
        <mxCell id="3dit7GDhFKGcdMsa8iTQ-212" value="" style="edgeStyle=orthogonalEdgeStyle;rounded=0;orthogonalLoop=1;jettySize=auto;html=1;" edge="1" parent="1" source="3dit7GDhFKGcdMsa8iTQ-209" target="3dit7GDhFKGcdMsa8iTQ-211">
          <mxGeometry relative="1" as="geometry" />
        </mxCell>
        <mxCell id="3dit7GDhFKGcdMsa8iTQ-209" value="Input 1/2" style="shape=parallelogram;perimeter=parallelogramPerimeter;whiteSpace=wrap;html=1;fixedSize=1;strokeWidth=2;rounded=1;arcSize=12;" vertex="1" parent="1">
          <mxGeometry x="1279" y="1410" width="120" height="60" as="geometry" />
        </mxCell>
        <mxCell id="3dit7GDhFKGcdMsa8iTQ-214" value="" style="edgeStyle=orthogonalEdgeStyle;rounded=0;orthogonalLoop=1;jettySize=auto;html=1;" edge="1" parent="1" source="3dit7GDhFKGcdMsa8iTQ-211" target="3dit7GDhFKGcdMsa8iTQ-213">
          <mxGeometry relative="1" as="geometry" />
        </mxCell>
        <mxCell id="3dit7GDhFKGcdMsa8iTQ-217" style="edgeStyle=orthogonalEdgeStyle;rounded=0;orthogonalLoop=1;jettySize=auto;html=1;" edge="1" parent="1" source="3dit7GDhFKGcdMsa8iTQ-211">
          <mxGeometry relative="1" as="geometry">
            <mxPoint x="2480" y="1370" as="targetPoint" />
          </mxGeometry>
        </mxCell>
        <mxCell id="3dit7GDhFKGcdMsa8iTQ-211" value="option" style="rhombus;whiteSpace=wrap;html=1;strokeWidth=2;rounded=1;arcSize=12;" vertex="1" parent="1">
          <mxGeometry x="1499" y="1400" width="80" height="80" as="geometry" />
        </mxCell>
        <mxCell id="3dit7GDhFKGcdMsa8iTQ-216" value="" style="edgeStyle=orthogonalEdgeStyle;rounded=0;orthogonalLoop=1;jettySize=auto;html=1;" edge="1" parent="1" source="3dit7GDhFKGcdMsa8iTQ-213" target="3dit7GDhFKGcdMsa8iTQ-215">
          <mxGeometry relative="1" as="geometry" />
        </mxCell>
        <mxCell id="3dit7GDhFKGcdMsa8iTQ-213" value="Input the name or brand of vehicle" style="shape=parallelogram;perimeter=parallelogramPerimeter;whiteSpace=wrap;html=1;fixedSize=1;strokeWidth=2;rounded=1;arcSize=12;" vertex="1" parent="1">
          <mxGeometry x="1479" y="1570" width="120" height="60" as="geometry" />
        </mxCell>
        <mxCell id="3dit7GDhFKGcdMsa8iTQ-218" style="edgeStyle=orthogonalEdgeStyle;rounded=0;orthogonalLoop=1;jettySize=auto;html=1;" edge="1" parent="1" source="3dit7GDhFKGcdMsa8iTQ-215">
          <mxGeometry relative="1" as="geometry">
            <mxPoint x="2480" y="1440" as="targetPoint" />
          </mxGeometry>
        </mxCell>
        <mxCell id="3dit7GDhFKGcdMsa8iTQ-215" value="Display table&amp;nbsp;corresponding vehicle" style="whiteSpace=wrap;html=1;strokeWidth=2;" vertex="1" parent="1">
          <mxGeometry x="1680" y="1570" width="120" height="60" as="geometry" />
        </mxCell>
        <mxCell id="vYZtWB5qguZJEZh0VH7T-3" style="edgeStyle=orthogonalEdgeStyle;rounded=0;orthogonalLoop=1;jettySize=auto;html=1;entryX=0;entryY=0.5;entryDx=0;entryDy=0;" edge="1" parent="1" source="3dit7GDhFKGcdMsa8iTQ-219" target="vYZtWB5qguZJEZh0VH7T-2">
          <mxGeometry relative="1" as="geometry" />
        </mxCell>
        <mxCell id="vYZtWB5qguZJEZh0VH7T-5" value="No" style="edgeLabel;html=1;align=center;verticalAlign=middle;resizable=0;points=[];" vertex="1" connectable="0" parent="vYZtWB5qguZJEZh0VH7T-3">
          <mxGeometry x="0.0009" y="1" relative="1" as="geometry">
            <mxPoint as="offset" />
          </mxGeometry>
        </mxCell>
        <mxCell id="3dit7GDhFKGcdMsa8iTQ-219" value="User&amp;nbsp;&lt;div&gt;option 5&lt;/div&gt;" style="rhombus;whiteSpace=wrap;html=1;strokeWidth=2;rounded=1;arcSize=12;" vertex="1" parent="1">
          <mxGeometry x="1082" y="1650" width="118" height="120" as="geometry" />
        </mxCell>
        <mxCell id="vYZtWB5qguZJEZh0VH7T-4" style="edgeStyle=orthogonalEdgeStyle;rounded=0;orthogonalLoop=1;jettySize=auto;html=1;" edge="1" parent="1" source="vYZtWB5qguZJEZh0VH7T-2">
          <mxGeometry relative="1" as="geometry">
            <mxPoint x="2480" y="1600" as="targetPoint" />
          </mxGeometry>
        </mxCell>
        <mxCell id="vYZtWB5qguZJEZh0VH7T-2" value="Show Notification: &quot;Invalid input&quot;" style="rounded=1;whiteSpace=wrap;html=1;" vertex="1" parent="1">
          <mxGeometry x="1560" y="1680" width="120" height="60" as="geometry" />
        </mxCell>
      </root>
    </mxGraphModel>
  </diagram>
  <diagram name="Main Flow" id="rRIECaaN3u0asPH0Vdvx">
    <mxGraphModel dx="5317" dy="3717" grid="1" gridSize="10" guides="1" tooltips="1" connect="1" arrows="1" fold="1" page="1" pageScale="1" pageWidth="850" pageHeight="1100" math="0" shadow="0">
      <root>
        <mxCell id="cFNZSEZFLGLc8BqrdQo--0" />
        <mxCell id="cFNZSEZFLGLc8BqrdQo--1" parent="cFNZSEZFLGLc8BqrdQo--0" />
        <mxCell id="cFNZSEZFLGLc8BqrdQo--2" value="" style="edgeStyle=orthogonalEdgeStyle;rounded=0;orthogonalLoop=1;jettySize=auto;html=1;exitX=0.5;exitY=1;exitDx=0;exitDy=0;exitPerimeter=0;entryX=0.5;entryY=0;entryDx=0;entryDy=0;" parent="cFNZSEZFLGLc8BqrdQo--1" source="cFNZSEZFLGLc8BqrdQo--3" target="ZcORQtDflexrsLdd_6ne-1" edge="1">
          <mxGeometry relative="1" as="geometry">
            <mxPoint x="95" y="145" as="targetPoint" />
          </mxGeometry>
        </mxCell>
        <mxCell id="cFNZSEZFLGLc8BqrdQo--3" value="start" style="shape=mxgraph.flowchart.terminator;strokeWidth=2;gradientColor=none;gradientDirection=north;fontStyle=0;html=1;" parent="cFNZSEZFLGLc8BqrdQo--1" vertex="1">
          <mxGeometry x="-125" y="-160" width="90" height="40" as="geometry" />
        </mxCell>
        <mxCell id="ZcORQtDflexrsLdd_6ne-18" style="edgeStyle=orthogonalEdgeStyle;rounded=0;orthogonalLoop=1;jettySize=auto;html=1;" edge="1" parent="cFNZSEZFLGLc8BqrdQo--1" source="cFNZSEZFLGLc8BqrdQo--12" target="cFNZSEZFLGLc8BqrdQo--15">
          <mxGeometry relative="1" as="geometry" />
        </mxCell>
        <mxCell id="cFNZSEZFLGLc8BqrdQo--12" value="Registration&lt;div&gt;Input new username&lt;br&gt;and&lt;div&gt;password&lt;/div&gt;&lt;/div&gt;" style="shape=parallelogram;html=1;strokeWidth=2;perimeter=parallelogramPerimeter;whiteSpace=wrap;rounded=1;arcSize=12;size=0.23;" parent="cFNZSEZFLGLc8BqrdQo--1" vertex="1">
          <mxGeometry x="405" y="170" width="160" height="60" as="geometry" />
        </mxCell>
        <mxCell id="ZcORQtDflexrsLdd_6ne-22" value="" style="edgeStyle=orthogonalEdgeStyle;rounded=0;orthogonalLoop=1;jettySize=auto;html=1;" edge="1" parent="cFNZSEZFLGLc8BqrdQo--1" source="cFNZSEZFLGLc8BqrdQo--15" target="7WebkBKSZGJglqhumsMq-20">
          <mxGeometry relative="1" as="geometry" />
        </mxCell>
        <mxCell id="ZcORQtDflexrsLdd_6ne-25" style="edgeStyle=orthogonalEdgeStyle;rounded=0;orthogonalLoop=1;jettySize=auto;html=1;entryX=0;entryY=0.5;entryDx=0;entryDy=0;" edge="1" parent="cFNZSEZFLGLc8BqrdQo--1" source="cFNZSEZFLGLc8BqrdQo--15" target="cFNZSEZFLGLc8BqrdQo--23">
          <mxGeometry relative="1" as="geometry">
            <Array as="points">
              <mxPoint x="290" y="360" />
            </Array>
          </mxGeometry>
        </mxCell>
        <mxCell id="ZcORQtDflexrsLdd_6ne-26" style="edgeStyle=orthogonalEdgeStyle;rounded=0;orthogonalLoop=1;jettySize=auto;html=1;entryX=1;entryY=0.5;entryDx=0;entryDy=0;" edge="1" parent="cFNZSEZFLGLc8BqrdQo--1" source="cFNZSEZFLGLc8BqrdQo--15" target="cFNZSEZFLGLc8BqrdQo--21">
          <mxGeometry relative="1" as="geometry">
            <Array as="points">
              <mxPoint x="290" y="360" />
            </Array>
          </mxGeometry>
        </mxCell>
        <mxCell id="cFNZSEZFLGLc8BqrdQo--15" value="&lt;div&gt;Log in&lt;/div&gt;&lt;div&gt;Input username&lt;br&gt;and&lt;div&gt;password&lt;/div&gt;&lt;/div&gt;" style="shape=parallelogram;html=1;strokeWidth=2;perimeter=parallelogramPerimeter;whiteSpace=wrap;rounded=1;arcSize=12;size=0.23;" parent="cFNZSEZFLGLc8BqrdQo--1" vertex="1">
          <mxGeometry x="210" y="170" width="160" height="60" as="geometry" />
        </mxCell>
        <mxCell id="cFNZSEZFLGLc8BqrdQo--16" style="edgeStyle=orthogonalEdgeStyle;rounded=0;orthogonalLoop=1;jettySize=auto;html=1;entryX=0.5;entryY=1;entryDx=0;entryDy=0;exitX=0;exitY=0.5;exitDx=0;exitDy=0;" parent="cFNZSEZFLGLc8BqrdQo--1" source="7WebkBKSZGJglqhumsMq-20" target="ZcORQtDflexrsLdd_6ne-1" edge="1">
          <mxGeometry relative="1" as="geometry">
            <mxPoint x="95" y="255" as="targetPoint" />
          </mxGeometry>
        </mxCell>
        <mxCell id="cFNZSEZFLGLc8BqrdQo--20" value="" style="edgeStyle=orthogonalEdgeStyle;rounded=0;orthogonalLoop=1;jettySize=auto;html=1;entryX=0.5;entryY=0;entryDx=0;entryDy=0;exitX=0.5;exitY=1;exitDx=0;exitDy=0;" parent="cFNZSEZFLGLc8BqrdQo--1" source="cFNZSEZFLGLc8BqrdQo--21" target="cFNZSEZFLGLc8BqrdQo--25" edge="1">
          <mxGeometry relative="1" as="geometry">
            <Array as="points">
              <mxPoint x="116" y="390" />
              <mxPoint x="116" y="470" />
              <mxPoint x="115" y="470" />
            </Array>
          </mxGeometry>
        </mxCell>
        <mxCell id="cFNZSEZFLGLc8BqrdQo--21" value="Display Menu Option&amp;nbsp;&lt;div&gt;for admin&lt;/div&gt;" style="whiteSpace=wrap;html=1;strokeWidth=2;rounded=1;arcSize=12;" parent="cFNZSEZFLGLc8BqrdQo--1" vertex="1">
          <mxGeometry x="58" y="330" width="120" height="60" as="geometry" />
        </mxCell>
        <mxCell id="cFNZSEZFLGLc8BqrdQo--22" value="" style="edgeStyle=orthogonalEdgeStyle;rounded=0;orthogonalLoop=1;jettySize=auto;html=1;" parent="cFNZSEZFLGLc8BqrdQo--1" source="cFNZSEZFLGLc8BqrdQo--23" target="cFNZSEZFLGLc8BqrdQo--39" edge="1">
          <mxGeometry relative="1" as="geometry" />
        </mxCell>
        <mxCell id="cFNZSEZFLGLc8BqrdQo--23" value="Dsiplay Menu option for user" style="whiteSpace=wrap;html=1;strokeWidth=2;rounded=1;arcSize=12;" parent="cFNZSEZFLGLc8BqrdQo--1" vertex="1">
          <mxGeometry x="530" y="330" width="120" height="60" as="geometry" />
        </mxCell>
        <mxCell id="cFNZSEZFLGLc8BqrdQo--24" value="" style="edgeStyle=orthogonalEdgeStyle;rounded=0;orthogonalLoop=1;jettySize=auto;html=1;" parent="cFNZSEZFLGLc8BqrdQo--1" source="cFNZSEZFLGLc8BqrdQo--25" target="cFNZSEZFLGLc8BqrdQo--27" edge="1">
          <mxGeometry relative="1" as="geometry" />
        </mxCell>
        <mxCell id="xCOysYunAMmOzCRL9UnM-1" value="" style="edgeStyle=orthogonalEdgeStyle;rounded=0;orthogonalLoop=1;jettySize=auto;html=1;" parent="cFNZSEZFLGLc8BqrdQo--1" source="cFNZSEZFLGLc8BqrdQo--25" target="xCOysYunAMmOzCRL9UnM-0" edge="1">
          <mxGeometry relative="1" as="geometry" />
        </mxCell>
        <mxCell id="cFNZSEZFLGLc8BqrdQo--25" value="Admin option 1&lt;div&gt;Dsiplay&amp;nbsp;&lt;/div&gt;&lt;div&gt;data Vehicle&lt;/div&gt;" style="rhombus;whiteSpace=wrap;html=1;strokeWidth=2;rounded=1;arcSize=12;" parent="cFNZSEZFLGLc8BqrdQo--1" vertex="1">
          <mxGeometry x="56" y="550" width="118" height="120" as="geometry" />
        </mxCell>
        <mxCell id="cFNZSEZFLGLc8BqrdQo--26" value="" style="edgeStyle=orthogonalEdgeStyle;rounded=0;orthogonalLoop=1;jettySize=auto;html=1;" parent="cFNZSEZFLGLc8BqrdQo--1" source="cFNZSEZFLGLc8BqrdQo--27" target="cFNZSEZFLGLc8BqrdQo--29" edge="1">
          <mxGeometry relative="1" as="geometry" />
        </mxCell>
        <mxCell id="xCOysYunAMmOzCRL9UnM-3" value="" style="edgeStyle=orthogonalEdgeStyle;rounded=0;orthogonalLoop=1;jettySize=auto;html=1;" parent="cFNZSEZFLGLc8BqrdQo--1" source="cFNZSEZFLGLc8BqrdQo--27" target="xCOysYunAMmOzCRL9UnM-2" edge="1">
          <mxGeometry relative="1" as="geometry" />
        </mxCell>
        <mxCell id="cFNZSEZFLGLc8BqrdQo--27" value="Admin&amp;nbsp;&lt;div&gt;option 2&lt;/div&gt;" style="rhombus;whiteSpace=wrap;html=1;strokeWidth=2;rounded=1;arcSize=12;" parent="cFNZSEZFLGLc8BqrdQo--1" vertex="1">
          <mxGeometry x="56" y="720" width="118" height="120" as="geometry" />
        </mxCell>
        <mxCell id="cFNZSEZFLGLc8BqrdQo--28" value="" style="edgeStyle=orthogonalEdgeStyle;rounded=0;orthogonalLoop=1;jettySize=auto;html=1;" parent="cFNZSEZFLGLc8BqrdQo--1" source="cFNZSEZFLGLc8BqrdQo--29" target="cFNZSEZFLGLc8BqrdQo--31" edge="1">
          <mxGeometry relative="1" as="geometry" />
        </mxCell>
        <mxCell id="xCOysYunAMmOzCRL9UnM-5" value="" style="edgeStyle=orthogonalEdgeStyle;rounded=0;orthogonalLoop=1;jettySize=auto;html=1;" parent="cFNZSEZFLGLc8BqrdQo--1" source="cFNZSEZFLGLc8BqrdQo--29" target="xCOysYunAMmOzCRL9UnM-4" edge="1">
          <mxGeometry relative="1" as="geometry" />
        </mxCell>
        <mxCell id="cFNZSEZFLGLc8BqrdQo--29" value="Admin&amp;nbsp;&lt;div&gt;option 3&lt;/div&gt;" style="rhombus;whiteSpace=wrap;html=1;strokeWidth=2;rounded=1;arcSize=12;" parent="cFNZSEZFLGLc8BqrdQo--1" vertex="1">
          <mxGeometry x="56" y="910" width="118" height="120" as="geometry" />
        </mxCell>
        <mxCell id="cFNZSEZFLGLc8BqrdQo--30" value="" style="edgeStyle=orthogonalEdgeStyle;rounded=0;orthogonalLoop=1;jettySize=auto;html=1;" parent="cFNZSEZFLGLc8BqrdQo--1" source="cFNZSEZFLGLc8BqrdQo--31" target="cFNZSEZFLGLc8BqrdQo--33" edge="1">
          <mxGeometry relative="1" as="geometry" />
        </mxCell>
        <mxCell id="xCOysYunAMmOzCRL9UnM-7" value="" style="edgeStyle=orthogonalEdgeStyle;rounded=0;orthogonalLoop=1;jettySize=auto;html=1;" parent="cFNZSEZFLGLc8BqrdQo--1" source="cFNZSEZFLGLc8BqrdQo--31" target="xCOysYunAMmOzCRL9UnM-6" edge="1">
          <mxGeometry relative="1" as="geometry" />
        </mxCell>
        <mxCell id="cFNZSEZFLGLc8BqrdQo--31" value="Admin&amp;nbsp;&lt;div&gt;option&amp;nbsp;&lt;span style=&quot;background-color: initial;&quot;&gt;4&lt;/span&gt;&lt;/div&gt;" style="rhombus;whiteSpace=wrap;html=1;strokeWidth=2;rounded=1;arcSize=12;" parent="cFNZSEZFLGLc8BqrdQo--1" vertex="1">
          <mxGeometry x="56" y="1090" width="118" height="120" as="geometry" />
        </mxCell>
        <mxCell id="cFNZSEZFLGLc8BqrdQo--32" value="" style="edgeStyle=orthogonalEdgeStyle;rounded=0;orthogonalLoop=1;jettySize=auto;html=1;" parent="cFNZSEZFLGLc8BqrdQo--1" source="cFNZSEZFLGLc8BqrdQo--33" target="cFNZSEZFLGLc8BqrdQo--35" edge="1">
          <mxGeometry relative="1" as="geometry" />
        </mxCell>
        <mxCell id="xCOysYunAMmOzCRL9UnM-9" value="" style="edgeStyle=orthogonalEdgeStyle;rounded=0;orthogonalLoop=1;jettySize=auto;html=1;" parent="cFNZSEZFLGLc8BqrdQo--1" source="cFNZSEZFLGLc8BqrdQo--33" target="xCOysYunAMmOzCRL9UnM-8" edge="1">
          <mxGeometry relative="1" as="geometry" />
        </mxCell>
        <mxCell id="cFNZSEZFLGLc8BqrdQo--33" value="Admin&amp;nbsp;&lt;div&gt;option 5&lt;/div&gt;" style="rhombus;whiteSpace=wrap;html=1;strokeWidth=2;rounded=1;arcSize=12;" parent="cFNZSEZFLGLc8BqrdQo--1" vertex="1">
          <mxGeometry x="56" y="1300" width="118" height="120" as="geometry" />
        </mxCell>
        <mxCell id="cFNZSEZFLGLc8BqrdQo--34" value="" style="edgeStyle=orthogonalEdgeStyle;rounded=0;orthogonalLoop=1;jettySize=auto;html=1;" parent="cFNZSEZFLGLc8BqrdQo--1" source="cFNZSEZFLGLc8BqrdQo--35" target="cFNZSEZFLGLc8BqrdQo--37" edge="1">
          <mxGeometry relative="1" as="geometry" />
        </mxCell>
        <mxCell id="xCOysYunAMmOzCRL9UnM-11" value="" style="edgeStyle=orthogonalEdgeStyle;rounded=0;orthogonalLoop=1;jettySize=auto;html=1;" parent="cFNZSEZFLGLc8BqrdQo--1" source="cFNZSEZFLGLc8BqrdQo--35" target="xCOysYunAMmOzCRL9UnM-10" edge="1">
          <mxGeometry relative="1" as="geometry" />
        </mxCell>
        <mxCell id="cFNZSEZFLGLc8BqrdQo--35" value="Admin&amp;nbsp;&lt;div&gt;option 6&lt;/div&gt;" style="rhombus;whiteSpace=wrap;html=1;strokeWidth=2;rounded=1;arcSize=12;" parent="cFNZSEZFLGLc8BqrdQo--1" vertex="1">
          <mxGeometry x="56" y="1490" width="118" height="120" as="geometry" />
        </mxCell>
        <mxCell id="cFNZSEZFLGLc8BqrdQo--36" style="edgeStyle=orthogonalEdgeStyle;rounded=0;orthogonalLoop=1;jettySize=auto;html=1;exitX=0;exitY=0.5;exitDx=0;exitDy=0;" parent="cFNZSEZFLGLc8BqrdQo--1" source="cFNZSEZFLGLc8BqrdQo--37" edge="1">
          <mxGeometry relative="1" as="geometry">
            <mxPoint x="-80" y="210" as="targetPoint" />
            <mxPoint x="51" y="1742" as="sourcePoint" />
          </mxGeometry>
        </mxCell>
        <mxCell id="ZcORQtDflexrsLdd_6ne-27" style="edgeStyle=orthogonalEdgeStyle;rounded=0;orthogonalLoop=1;jettySize=auto;html=1;entryX=0.5;entryY=0;entryDx=0;entryDy=0;" edge="1" parent="cFNZSEZFLGLc8BqrdQo--1" source="cFNZSEZFLGLc8BqrdQo--37" target="ZcORQtDflexrsLdd_6ne-29">
          <mxGeometry relative="1" as="geometry">
            <mxPoint x="115" y="1860" as="targetPoint" />
            <Array as="points">
              <mxPoint x="115" y="1910" />
            </Array>
          </mxGeometry>
        </mxCell>
        <mxCell id="cFNZSEZFLGLc8BqrdQo--37" value="Admin&amp;nbsp;&lt;div&gt;option 7&lt;/div&gt;" style="rhombus;whiteSpace=wrap;html=1;strokeWidth=2;rounded=1;arcSize=12;" parent="cFNZSEZFLGLc8BqrdQo--1" vertex="1">
          <mxGeometry x="56" y="1682" width="118" height="120" as="geometry" />
        </mxCell>
        <mxCell id="cFNZSEZFLGLc8BqrdQo--38" value="" style="edgeStyle=orthogonalEdgeStyle;rounded=0;orthogonalLoop=1;jettySize=auto;html=1;" parent="cFNZSEZFLGLc8BqrdQo--1" source="cFNZSEZFLGLc8BqrdQo--39" target="cFNZSEZFLGLc8BqrdQo--41" edge="1">
          <mxGeometry relative="1" as="geometry" />
        </mxCell>
        <mxCell id="xCOysYunAMmOzCRL9UnM-13" value="" style="edgeStyle=orthogonalEdgeStyle;rounded=0;orthogonalLoop=1;jettySize=auto;html=1;" parent="cFNZSEZFLGLc8BqrdQo--1" source="cFNZSEZFLGLc8BqrdQo--39" target="xCOysYunAMmOzCRL9UnM-12" edge="1">
          <mxGeometry relative="1" as="geometry" />
        </mxCell>
        <mxCell id="cFNZSEZFLGLc8BqrdQo--39" value="User&amp;nbsp;&lt;div&gt;option 1&lt;/div&gt;" style="rhombus;whiteSpace=wrap;html=1;strokeWidth=2;rounded=1;arcSize=12;" parent="cFNZSEZFLGLc8BqrdQo--1" vertex="1">
          <mxGeometry x="531" y="450" width="118" height="120" as="geometry" />
        </mxCell>
        <mxCell id="cFNZSEZFLGLc8BqrdQo--40" value="" style="edgeStyle=orthogonalEdgeStyle;rounded=0;orthogonalLoop=1;jettySize=auto;html=1;" parent="cFNZSEZFLGLc8BqrdQo--1" source="cFNZSEZFLGLc8BqrdQo--41" target="cFNZSEZFLGLc8BqrdQo--43" edge="1">
          <mxGeometry relative="1" as="geometry" />
        </mxCell>
        <mxCell id="xCOysYunAMmOzCRL9UnM-15" value="" style="edgeStyle=orthogonalEdgeStyle;rounded=0;orthogonalLoop=1;jettySize=auto;html=1;" parent="cFNZSEZFLGLc8BqrdQo--1" source="cFNZSEZFLGLc8BqrdQo--41" target="xCOysYunAMmOzCRL9UnM-14" edge="1">
          <mxGeometry relative="1" as="geometry" />
        </mxCell>
        <mxCell id="cFNZSEZFLGLc8BqrdQo--41" value="User&amp;nbsp;&lt;div&gt;option 2&lt;/div&gt;" style="rhombus;whiteSpace=wrap;html=1;strokeWidth=2;rounded=1;arcSize=12;" parent="cFNZSEZFLGLc8BqrdQo--1" vertex="1">
          <mxGeometry x="532" y="680" width="118" height="120" as="geometry" />
        </mxCell>
        <mxCell id="cFNZSEZFLGLc8BqrdQo--42" value="" style="edgeStyle=orthogonalEdgeStyle;rounded=0;orthogonalLoop=1;jettySize=auto;html=1;" parent="cFNZSEZFLGLc8BqrdQo--1" source="cFNZSEZFLGLc8BqrdQo--43" target="cFNZSEZFLGLc8BqrdQo--45" edge="1">
          <mxGeometry relative="1" as="geometry" />
        </mxCell>
        <mxCell id="xCOysYunAMmOzCRL9UnM-17" value="" style="edgeStyle=orthogonalEdgeStyle;rounded=0;orthogonalLoop=1;jettySize=auto;html=1;" parent="cFNZSEZFLGLc8BqrdQo--1" source="cFNZSEZFLGLc8BqrdQo--43" target="xCOysYunAMmOzCRL9UnM-16" edge="1">
          <mxGeometry relative="1" as="geometry" />
        </mxCell>
        <mxCell id="cFNZSEZFLGLc8BqrdQo--43" value="User&amp;nbsp;&lt;div&gt;option 3&lt;/div&gt;" style="rhombus;whiteSpace=wrap;html=1;strokeWidth=2;rounded=1;arcSize=12;" parent="cFNZSEZFLGLc8BqrdQo--1" vertex="1">
          <mxGeometry x="532" y="920" width="118" height="120" as="geometry" />
        </mxCell>
        <mxCell id="cFNZSEZFLGLc8BqrdQo--44" style="edgeStyle=orthogonalEdgeStyle;rounded=0;orthogonalLoop=1;jettySize=auto;html=1;exitX=0.5;exitY=1;exitDx=0;exitDy=0;" parent="cFNZSEZFLGLc8BqrdQo--1" edge="1" source="cFNZSEZFLGLc8BqrdQo--45">
          <mxGeometry relative="1" as="geometry">
            <mxPoint x="-80" y="1743" as="targetPoint" />
            <mxPoint x="541" y="1313" as="sourcePoint" />
            <Array as="points">
              <mxPoint x="551" y="2020" />
              <mxPoint x="-80" y="2020" />
            </Array>
          </mxGeometry>
        </mxCell>
        <mxCell id="cFNZSEZFLGLc8BqrdQo--45" value="User&amp;nbsp;&lt;div&gt;option 4&lt;/div&gt;" style="rhombus;whiteSpace=wrap;html=1;strokeWidth=2;rounded=1;arcSize=12;" parent="cFNZSEZFLGLc8BqrdQo--1" vertex="1">
          <mxGeometry x="532" y="1180" width="118" height="120" as="geometry" />
        </mxCell>
        <mxCell id="xCOysYunAMmOzCRL9UnM-0" value="A" style="ellipse;whiteSpace=wrap;html=1;strokeWidth=2;rounded=1;arcSize=12;" parent="cFNZSEZFLGLc8BqrdQo--1" vertex="1">
          <mxGeometry x="273" y="570" width="80" height="80" as="geometry" />
        </mxCell>
        <mxCell id="xCOysYunAMmOzCRL9UnM-2" value="B" style="ellipse;whiteSpace=wrap;html=1;strokeWidth=2;rounded=1;arcSize=12;" parent="cFNZSEZFLGLc8BqrdQo--1" vertex="1">
          <mxGeometry x="273" y="740" width="80" height="80" as="geometry" />
        </mxCell>
        <mxCell id="xCOysYunAMmOzCRL9UnM-4" value="C" style="ellipse;whiteSpace=wrap;html=1;strokeWidth=2;rounded=1;arcSize=12;" parent="cFNZSEZFLGLc8BqrdQo--1" vertex="1">
          <mxGeometry x="273" y="930" width="80" height="80" as="geometry" />
        </mxCell>
        <mxCell id="xCOysYunAMmOzCRL9UnM-6" value="D" style="ellipse;whiteSpace=wrap;html=1;strokeWidth=2;rounded=1;arcSize=12;" parent="cFNZSEZFLGLc8BqrdQo--1" vertex="1">
          <mxGeometry x="273" y="1110" width="80" height="80" as="geometry" />
        </mxCell>
        <mxCell id="xCOysYunAMmOzCRL9UnM-8" value="E" style="ellipse;whiteSpace=wrap;html=1;strokeWidth=2;rounded=1;arcSize=12;" parent="cFNZSEZFLGLc8BqrdQo--1" vertex="1">
          <mxGeometry x="273" y="1320" width="80" height="80" as="geometry" />
        </mxCell>
        <mxCell id="xCOysYunAMmOzCRL9UnM-10" value="F" style="ellipse;whiteSpace=wrap;html=1;strokeWidth=2;rounded=1;arcSize=12;" parent="cFNZSEZFLGLc8BqrdQo--1" vertex="1">
          <mxGeometry x="273" y="1510" width="80" height="80" as="geometry" />
        </mxCell>
        <mxCell id="xCOysYunAMmOzCRL9UnM-12" value="A" style="ellipse;whiteSpace=wrap;html=1;strokeWidth=2;rounded=1;arcSize=12;" parent="cFNZSEZFLGLc8BqrdQo--1" vertex="1">
          <mxGeometry x="748" y="470" width="80" height="80" as="geometry" />
        </mxCell>
        <mxCell id="xCOysYunAMmOzCRL9UnM-14" value="G" style="ellipse;whiteSpace=wrap;html=1;strokeWidth=2;rounded=1;arcSize=12;" parent="cFNZSEZFLGLc8BqrdQo--1" vertex="1">
          <mxGeometry x="749" y="700" width="80" height="80" as="geometry" />
        </mxCell>
        <mxCell id="xCOysYunAMmOzCRL9UnM-16" value="C" style="ellipse;whiteSpace=wrap;html=1;strokeWidth=2;rounded=1;arcSize=12;" parent="cFNZSEZFLGLc8BqrdQo--1" vertex="1">
          <mxGeometry x="749" y="940" width="80" height="80" as="geometry" />
        </mxCell>
        <mxCell id="7WebkBKSZGJglqhumsMq-0" value="Yes" style="text;html=1;align=center;verticalAlign=middle;whiteSpace=wrap;rounded=0;" parent="cFNZSEZFLGLc8BqrdQo--1" vertex="1">
          <mxGeometry x="175" y="580" width="60" height="30" as="geometry" />
        </mxCell>
        <mxCell id="7WebkBKSZGJglqhumsMq-1" value="Yes" style="text;html=1;align=center;verticalAlign=middle;whiteSpace=wrap;rounded=0;" parent="cFNZSEZFLGLc8BqrdQo--1" vertex="1">
          <mxGeometry x="175" y="750" width="60" height="30" as="geometry" />
        </mxCell>
        <mxCell id="7WebkBKSZGJglqhumsMq-2" value="Yes" style="text;html=1;align=center;verticalAlign=middle;whiteSpace=wrap;rounded=0;" parent="cFNZSEZFLGLc8BqrdQo--1" vertex="1">
          <mxGeometry x="175" y="940" width="60" height="30" as="geometry" />
        </mxCell>
        <mxCell id="7WebkBKSZGJglqhumsMq-3" value="Yes" style="text;html=1;align=center;verticalAlign=middle;whiteSpace=wrap;rounded=0;" parent="cFNZSEZFLGLc8BqrdQo--1" vertex="1">
          <mxGeometry x="175" y="1120" width="60" height="30" as="geometry" />
        </mxCell>
        <mxCell id="7WebkBKSZGJglqhumsMq-4" value="Yes" style="text;html=1;align=center;verticalAlign=middle;whiteSpace=wrap;rounded=0;" parent="cFNZSEZFLGLc8BqrdQo--1" vertex="1">
          <mxGeometry x="175" y="1330" width="60" height="30" as="geometry" />
        </mxCell>
        <mxCell id="7WebkBKSZGJglqhumsMq-5" value="Yes" style="text;html=1;align=center;verticalAlign=middle;whiteSpace=wrap;rounded=0;" parent="cFNZSEZFLGLc8BqrdQo--1" vertex="1">
          <mxGeometry x="175" y="1520" width="60" height="30" as="geometry" />
        </mxCell>
        <mxCell id="7WebkBKSZGJglqhumsMq-6" value="No" style="text;html=1;align=center;verticalAlign=middle;whiteSpace=wrap;rounded=0;" parent="cFNZSEZFLGLc8BqrdQo--1" vertex="1">
          <mxGeometry x="55" y="680" width="60" height="30" as="geometry" />
        </mxCell>
        <mxCell id="7WebkBKSZGJglqhumsMq-7" value="No" style="text;html=1;align=center;verticalAlign=middle;whiteSpace=wrap;rounded=0;" parent="cFNZSEZFLGLc8BqrdQo--1" vertex="1">
          <mxGeometry x="58" y="850" width="60" height="30" as="geometry" />
        </mxCell>
        <mxCell id="7WebkBKSZGJglqhumsMq-8" value="No" style="text;html=1;align=center;verticalAlign=middle;whiteSpace=wrap;rounded=0;" parent="cFNZSEZFLGLc8BqrdQo--1" vertex="1">
          <mxGeometry x="55" y="1040" width="60" height="30" as="geometry" />
        </mxCell>
        <mxCell id="7WebkBKSZGJglqhumsMq-9" value="No" style="text;html=1;align=center;verticalAlign=middle;whiteSpace=wrap;rounded=0;" parent="cFNZSEZFLGLc8BqrdQo--1" vertex="1">
          <mxGeometry x="55" y="1230" width="60" height="30" as="geometry" />
        </mxCell>
        <mxCell id="7WebkBKSZGJglqhumsMq-10" value="No" style="text;html=1;align=center;verticalAlign=middle;whiteSpace=wrap;rounded=0;" parent="cFNZSEZFLGLc8BqrdQo--1" vertex="1">
          <mxGeometry x="55" y="1440" width="60" height="30" as="geometry" />
        </mxCell>
        <mxCell id="7WebkBKSZGJglqhumsMq-11" value="No" style="text;html=1;align=center;verticalAlign=middle;whiteSpace=wrap;rounded=0;" parent="cFNZSEZFLGLc8BqrdQo--1" vertex="1">
          <mxGeometry x="590" y="585" width="60" height="30" as="geometry" />
        </mxCell>
        <mxCell id="7WebkBKSZGJglqhumsMq-12" value="No" style="text;html=1;align=center;verticalAlign=middle;whiteSpace=wrap;rounded=0;" parent="cFNZSEZFLGLc8BqrdQo--1" vertex="1">
          <mxGeometry x="589" y="840" width="60" height="30" as="geometry" />
        </mxCell>
        <mxCell id="7WebkBKSZGJglqhumsMq-13" value="No" style="text;html=1;align=center;verticalAlign=middle;whiteSpace=wrap;rounded=0;" parent="cFNZSEZFLGLc8BqrdQo--1" vertex="1">
          <mxGeometry x="590" y="1100" width="60" height="30" as="geometry" />
        </mxCell>
        <mxCell id="7WebkBKSZGJglqhumsMq-14" value="Yes" style="text;html=1;align=center;verticalAlign=middle;whiteSpace=wrap;rounded=0;" parent="cFNZSEZFLGLc8BqrdQo--1" vertex="1">
          <mxGeometry x="660" y="480" width="60" height="30" as="geometry" />
        </mxCell>
        <mxCell id="7WebkBKSZGJglqhumsMq-15" value="Yes" style="text;html=1;align=center;verticalAlign=middle;whiteSpace=wrap;rounded=0;" parent="cFNZSEZFLGLc8BqrdQo--1" vertex="1">
          <mxGeometry x="660" y="710" width="60" height="30" as="geometry" />
        </mxCell>
        <mxCell id="7WebkBKSZGJglqhumsMq-16" value="Yes" style="text;html=1;align=center;verticalAlign=middle;whiteSpace=wrap;rounded=0;" parent="cFNZSEZFLGLc8BqrdQo--1" vertex="1">
          <mxGeometry x="660" y="950" width="60" height="30" as="geometry" />
        </mxCell>
        <mxCell id="7WebkBKSZGJglqhumsMq-17" value="No" style="text;html=1;align=center;verticalAlign=middle;whiteSpace=wrap;rounded=0;" parent="cFNZSEZFLGLc8BqrdQo--1" vertex="1">
          <mxGeometry x="50" y="1810" width="60" height="30" as="geometry" />
        </mxCell>
        <mxCell id="7WebkBKSZGJglqhumsMq-20" value="Show Notification: &quot;Wrong username or password&quot;" style="rounded=1;whiteSpace=wrap;html=1;" parent="cFNZSEZFLGLc8BqrdQo--1" vertex="1">
          <mxGeometry x="-10" y="171" width="120" height="60" as="geometry" />
        </mxCell>
        <mxCell id="ZcORQtDflexrsLdd_6ne-8" value="" style="edgeStyle=orthogonalEdgeStyle;rounded=0;orthogonalLoop=1;jettySize=auto;html=1;" edge="1" parent="cFNZSEZFLGLc8BqrdQo--1" source="ZcORQtDflexrsLdd_6ne-1" target="ZcORQtDflexrsLdd_6ne-7">
          <mxGeometry relative="1" as="geometry" />
        </mxCell>
        <mxCell id="ZcORQtDflexrsLdd_6ne-1" value="Display Menu&amp;nbsp;&lt;div&gt;Option&lt;/div&gt;" style="rounded=1;whiteSpace=wrap;html=1;" vertex="1" parent="cFNZSEZFLGLc8BqrdQo--1">
          <mxGeometry x="-140" y="30" width="120" height="70" as="geometry" />
        </mxCell>
        <mxCell id="ZcORQtDflexrsLdd_6ne-4" value="Option 3" style="strokeWidth=2;html=1;shape=mxgraph.flowchart.decision;whiteSpace=wrap;" vertex="1" parent="cFNZSEZFLGLc8BqrdQo--1">
          <mxGeometry x="620" y="15" width="100" height="100" as="geometry" />
        </mxCell>
        <mxCell id="ZcORQtDflexrsLdd_6ne-10" value="" style="edgeStyle=orthogonalEdgeStyle;rounded=0;orthogonalLoop=1;jettySize=auto;html=1;" edge="1" parent="cFNZSEZFLGLc8BqrdQo--1" source="ZcORQtDflexrsLdd_6ne-6" target="ZcORQtDflexrsLdd_6ne-4">
          <mxGeometry relative="1" as="geometry" />
        </mxCell>
        <mxCell id="ZcORQtDflexrsLdd_6ne-16" style="edgeStyle=orthogonalEdgeStyle;rounded=0;orthogonalLoop=1;jettySize=auto;html=1;entryX=0.5;entryY=0;entryDx=0;entryDy=0;" edge="1" parent="cFNZSEZFLGLc8BqrdQo--1" source="ZcORQtDflexrsLdd_6ne-6" target="cFNZSEZFLGLc8BqrdQo--12">
          <mxGeometry relative="1" as="geometry" />
        </mxCell>
        <mxCell id="ZcORQtDflexrsLdd_6ne-6" value="Option 2" style="strokeWidth=2;html=1;shape=mxgraph.flowchart.decision;whiteSpace=wrap;" vertex="1" parent="cFNZSEZFLGLc8BqrdQo--1">
          <mxGeometry x="435" y="15" width="100" height="100" as="geometry" />
        </mxCell>
        <mxCell id="ZcORQtDflexrsLdd_6ne-9" value="" style="edgeStyle=orthogonalEdgeStyle;rounded=0;orthogonalLoop=1;jettySize=auto;html=1;" edge="1" parent="cFNZSEZFLGLc8BqrdQo--1" source="ZcORQtDflexrsLdd_6ne-7" target="ZcORQtDflexrsLdd_6ne-6">
          <mxGeometry relative="1" as="geometry" />
        </mxCell>
        <mxCell id="ZcORQtDflexrsLdd_6ne-17" value="" style="edgeStyle=orthogonalEdgeStyle;rounded=0;orthogonalLoop=1;jettySize=auto;html=1;" edge="1" parent="cFNZSEZFLGLc8BqrdQo--1" source="ZcORQtDflexrsLdd_6ne-7" target="cFNZSEZFLGLc8BqrdQo--15">
          <mxGeometry relative="1" as="geometry" />
        </mxCell>
        <mxCell id="ZcORQtDflexrsLdd_6ne-7" value="Option 1" style="strokeWidth=2;html=1;shape=mxgraph.flowchart.decision;whiteSpace=wrap;" vertex="1" parent="cFNZSEZFLGLc8BqrdQo--1">
          <mxGeometry x="240" y="15" width="100" height="100" as="geometry" />
        </mxCell>
        <mxCell id="ZcORQtDflexrsLdd_6ne-11" value="No" style="text;html=1;align=center;verticalAlign=middle;whiteSpace=wrap;rounded=0;" vertex="1" parent="cFNZSEZFLGLc8BqrdQo--1">
          <mxGeometry x="355" y="30" width="60" height="30" as="geometry" />
        </mxCell>
        <mxCell id="ZcORQtDflexrsLdd_6ne-12" value="No" style="text;html=1;align=center;verticalAlign=middle;whiteSpace=wrap;rounded=0;" vertex="1" parent="cFNZSEZFLGLc8BqrdQo--1">
          <mxGeometry x="550" y="30" width="60" height="30" as="geometry" />
        </mxCell>
        <mxCell id="ZcORQtDflexrsLdd_6ne-13" value="Option 3&lt;div&gt;End&lt;/div&gt;" style="shape=mxgraph.flowchart.terminator;strokeWidth=2;gradientColor=none;gradientDirection=north;fontStyle=0;html=1;" vertex="1" parent="cFNZSEZFLGLc8BqrdQo--1">
          <mxGeometry x="860" y="45" width="90" height="40" as="geometry" />
        </mxCell>
        <mxCell id="ZcORQtDflexrsLdd_6ne-14" style="edgeStyle=orthogonalEdgeStyle;rounded=0;orthogonalLoop=1;jettySize=auto;html=1;entryX=0;entryY=0.5;entryDx=0;entryDy=0;entryPerimeter=0;" edge="1" parent="cFNZSEZFLGLc8BqrdQo--1" source="ZcORQtDflexrsLdd_6ne-4" target="ZcORQtDflexrsLdd_6ne-13">
          <mxGeometry relative="1" as="geometry" />
        </mxCell>
        <mxCell id="ZcORQtDflexrsLdd_6ne-19" value="Yes" style="text;html=1;align=center;verticalAlign=middle;whiteSpace=wrap;rounded=0;" vertex="1" parent="cFNZSEZFLGLc8BqrdQo--1">
          <mxGeometry x="290" y="120" width="60" height="30" as="geometry" />
        </mxCell>
        <mxCell id="ZcORQtDflexrsLdd_6ne-20" value="Yes" style="text;html=1;align=center;verticalAlign=middle;whiteSpace=wrap;rounded=0;" vertex="1" parent="cFNZSEZFLGLc8BqrdQo--1">
          <mxGeometry x="490" y="120" width="60" height="30" as="geometry" />
        </mxCell>
        <mxCell id="ZcORQtDflexrsLdd_6ne-29" value="Show Notification: &quot;Invalid option. Please choose again.&quot;" style="rounded=1;whiteSpace=wrap;html=1;" vertex="1" parent="cFNZSEZFLGLc8BqrdQo--1">
          <mxGeometry x="55" y="1917" width="120" height="60" as="geometry" />
        </mxCell>
      </root>
    </mxGraphModel>
  </diagram>
  <diagram id="6a731a19-8d31-9384-78a2-239565b7b9f0" name="Page-1">
    <mxGraphModel dx="1576" dy="924" grid="1" gridSize="10" guides="1" tooltips="1" connect="1" arrows="1" fold="1" page="1" pageScale="1" pageWidth="1169" pageHeight="827" background="none" math="0" shadow="0">
      <root>
        <mxCell id="0" />
        <mxCell id="1" parent="0" />
      </root>
    </mxGraphModel>
  </diagram>
  <diagram id="Jj3V-Wx6huJFfz0AO5mp" name="Page-2">
    <mxGraphModel dx="2177" dy="772" grid="1" gridSize="10" guides="1" tooltips="1" connect="1" arrows="1" fold="1" page="1" pageScale="1" pageWidth="850" pageHeight="1100" math="0" shadow="0">
      <root>
        <mxCell id="0" />
        <mxCell id="1" parent="0" />
        <mxCell id="U-fwrkfTO3YeuutFTNrv-4" value="" style="edgeStyle=orthogonalEdgeStyle;rounded=0;orthogonalLoop=1;jettySize=auto;html=1;exitX=1;exitY=0.5;exitDx=0;exitDy=0;exitPerimeter=0;" parent="1" source="U-fwrkfTO3YeuutFTNrv-1" target="U-fwrkfTO3YeuutFTNrv-3" edge="1">
          <mxGeometry relative="1" as="geometry" />
        </mxCell>
        <mxCell id="U-fwrkfTO3YeuutFTNrv-1" value="start" style="shape=mxgraph.flowchart.terminator;strokeWidth=2;gradientColor=none;gradientDirection=north;fontStyle=0;html=1;" parent="1" vertex="1">
          <mxGeometry x="40" y="40" width="90" height="40" as="geometry" />
        </mxCell>
        <mxCell id="U-fwrkfTO3YeuutFTNrv-2" value="End" style="shape=mxgraph.flowchart.terminator;strokeWidth=2;gradientColor=none;gradientDirection=north;fontStyle=0;html=1;" parent="1" vertex="1">
          <mxGeometry y="660" width="90" height="40" as="geometry" />
        </mxCell>
        <mxCell id="U-fwrkfTO3YeuutFTNrv-8" value="" style="edgeStyle=orthogonalEdgeStyle;rounded=0;orthogonalLoop=1;jettySize=auto;html=1;" parent="1" source="U-fwrkfTO3YeuutFTNrv-3" target="U-fwrkfTO3YeuutFTNrv-7" edge="1">
          <mxGeometry relative="1" as="geometry" />
        </mxCell>
        <mxCell id="U-fwrkfTO3YeuutFTNrv-3" value="Type exit or&amp;nbsp;&lt;div&gt;press enter to continue&lt;/div&gt;" style="strokeWidth=2;html=1;shape=mxgraph.flowchart.decision;whiteSpace=wrap;" parent="1" vertex="1">
          <mxGeometry x="100" y="145" width="110" height="110" as="geometry" />
        </mxCell>
        <mxCell id="U-fwrkfTO3YeuutFTNrv-5" value="" style="endArrow=classic;html=1;rounded=0;exitX=0;exitY=0.5;exitDx=0;exitDy=0;exitPerimeter=0;entryX=0.5;entryY=0;entryDx=0;entryDy=0;entryPerimeter=0;" parent="1" source="U-fwrkfTO3YeuutFTNrv-3" target="U-fwrkfTO3YeuutFTNrv-2" edge="1">
          <mxGeometry width="50" height="50" relative="1" as="geometry">
            <mxPoint x="390" y="460" as="sourcePoint" />
            <mxPoint x="440" y="410" as="targetPoint" />
            <Array as="points">
              <mxPoint x="40" y="200" />
            </Array>
          </mxGeometry>
        </mxCell>
        <mxCell id="U-fwrkfTO3YeuutFTNrv-6" value="Exit" style="text;html=1;align=center;verticalAlign=middle;whiteSpace=wrap;rounded=0;" parent="1" vertex="1">
          <mxGeometry x="30" y="280" width="60" height="30" as="geometry" />
        </mxCell>
        <mxCell id="U-fwrkfTO3YeuutFTNrv-10" value="" style="edgeStyle=orthogonalEdgeStyle;rounded=0;orthogonalLoop=1;jettySize=auto;html=1;" parent="1" source="U-fwrkfTO3YeuutFTNrv-7" target="U-fwrkfTO3YeuutFTNrv-9" edge="1">
          <mxGeometry relative="1" as="geometry" />
        </mxCell>
        <mxCell id="U-fwrkfTO3YeuutFTNrv-12" value="" style="edgeStyle=orthogonalEdgeStyle;rounded=0;orthogonalLoop=1;jettySize=auto;html=1;" parent="1" source="U-fwrkfTO3YeuutFTNrv-7" target="U-fwrkfTO3YeuutFTNrv-11" edge="1">
          <mxGeometry relative="1" as="geometry" />
        </mxCell>
        <mxCell id="U-fwrkfTO3YeuutFTNrv-7" value="Do you have an account ?" style="strokeWidth=2;html=1;shape=mxgraph.flowchart.decision;whiteSpace=wrap;" parent="1" vertex="1">
          <mxGeometry x="360" y="145" width="110" height="110" as="geometry" />
        </mxCell>
        <mxCell id="U-fwrkfTO3YeuutFTNrv-9" value="Registration&lt;div&gt;Input new username&lt;br&gt;and&lt;div&gt;password&lt;/div&gt;&lt;/div&gt;" style="shape=parallelogram;html=1;strokeWidth=2;perimeter=parallelogramPerimeter;whiteSpace=wrap;rounded=1;arcSize=12;size=0.23;" parent="1" vertex="1">
          <mxGeometry x="600" y="170" width="160" height="60" as="geometry" />
        </mxCell>
        <mxCell id="U-fwrkfTO3YeuutFTNrv-20" value="" style="edgeStyle=orthogonalEdgeStyle;rounded=0;orthogonalLoop=1;jettySize=auto;html=1;" parent="1" source="U-fwrkfTO3YeuutFTNrv-11" target="U-fwrkfTO3YeuutFTNrv-19" edge="1">
          <mxGeometry relative="1" as="geometry" />
        </mxCell>
        <mxCell id="U-fwrkfTO3YeuutFTNrv-22" value="" style="edgeStyle=orthogonalEdgeStyle;rounded=0;orthogonalLoop=1;jettySize=auto;html=1;" parent="1" source="U-fwrkfTO3YeuutFTNrv-11" target="U-fwrkfTO3YeuutFTNrv-21" edge="1">
          <mxGeometry relative="1" as="geometry" />
        </mxCell>
        <mxCell id="U-fwrkfTO3YeuutFTNrv-11" value="&lt;div&gt;Log in&lt;/div&gt;&lt;div&gt;Input username&lt;br&gt;and&lt;div&gt;password&lt;/div&gt;&lt;/div&gt;" style="shape=parallelogram;html=1;strokeWidth=2;perimeter=parallelogramPerimeter;whiteSpace=wrap;rounded=1;arcSize=12;size=0.23;" parent="1" vertex="1">
          <mxGeometry x="335" y="350" width="160" height="60" as="geometry" />
        </mxCell>
        <mxCell id="U-fwrkfTO3YeuutFTNrv-14" style="edgeStyle=orthogonalEdgeStyle;rounded=0;orthogonalLoop=1;jettySize=auto;html=1;entryX=0.5;entryY=1;entryDx=0;entryDy=0;entryPerimeter=0;" parent="1" source="U-fwrkfTO3YeuutFTNrv-11" target="U-fwrkfTO3YeuutFTNrv-3" edge="1">
          <mxGeometry relative="1" as="geometry" />
        </mxCell>
        <mxCell id="U-fwrkfTO3YeuutFTNrv-16" value="Yes" style="text;html=1;align=center;verticalAlign=middle;whiteSpace=wrap;rounded=0;" parent="1" vertex="1">
          <mxGeometry x="360" y="280" width="60" height="30" as="geometry" />
        </mxCell>
        <mxCell id="U-fwrkfTO3YeuutFTNrv-17" value="No" style="text;html=1;align=center;verticalAlign=middle;whiteSpace=wrap;rounded=0;" parent="1" vertex="1">
          <mxGeometry x="510" y="170" width="60" height="30" as="geometry" />
        </mxCell>
        <mxCell id="U-fwrkfTO3YeuutFTNrv-18" value="Enter" style="text;html=1;align=center;verticalAlign=middle;whiteSpace=wrap;rounded=0;" parent="1" vertex="1">
          <mxGeometry x="250" y="170" width="60" height="30" as="geometry" />
        </mxCell>
        <mxCell id="U-fwrkfTO3YeuutFTNrv-24" value="" style="edgeStyle=orthogonalEdgeStyle;rounded=0;orthogonalLoop=1;jettySize=auto;html=1;" parent="1" source="U-fwrkfTO3YeuutFTNrv-19" target="U-fwrkfTO3YeuutFTNrv-23" edge="1">
          <mxGeometry relative="1" as="geometry" />
        </mxCell>
        <mxCell id="U-fwrkfTO3YeuutFTNrv-19" value="Display Menu Option&amp;nbsp;&lt;div&gt;for admin&lt;/div&gt;" style="whiteSpace=wrap;html=1;strokeWidth=2;rounded=1;arcSize=12;" parent="1" vertex="1">
          <mxGeometry x="355" y="500" width="120" height="60" as="geometry" />
        </mxCell>
        <mxCell id="U-fwrkfTO3YeuutFTNrv-42" value="" style="edgeStyle=orthogonalEdgeStyle;rounded=0;orthogonalLoop=1;jettySize=auto;html=1;" parent="1" source="U-fwrkfTO3YeuutFTNrv-21" target="U-fwrkfTO3YeuutFTNrv-39" edge="1">
          <mxGeometry relative="1" as="geometry" />
        </mxCell>
        <mxCell id="U-fwrkfTO3YeuutFTNrv-21" value="Dsiplay Menu option for user" style="whiteSpace=wrap;html=1;strokeWidth=2;rounded=1;arcSize=12;" parent="1" vertex="1">
          <mxGeometry x="630" y="350" width="120" height="60" as="geometry" />
        </mxCell>
        <mxCell id="U-fwrkfTO3YeuutFTNrv-26" value="" style="edgeStyle=orthogonalEdgeStyle;rounded=0;orthogonalLoop=1;jettySize=auto;html=1;" parent="1" source="U-fwrkfTO3YeuutFTNrv-23" target="U-fwrkfTO3YeuutFTNrv-25" edge="1">
          <mxGeometry relative="1" as="geometry" />
        </mxCell>
        <mxCell id="U-fwrkfTO3YeuutFTNrv-23" value="Admin option 1&lt;div&gt;Dsiplay&amp;nbsp;&lt;/div&gt;&lt;div&gt;data Vehicle&lt;/div&gt;" style="rhombus;whiteSpace=wrap;html=1;strokeWidth=2;rounded=1;arcSize=12;" parent="1" vertex="1">
          <mxGeometry x="356" y="630" width="118" height="120" as="geometry" />
        </mxCell>
        <mxCell id="U-fwrkfTO3YeuutFTNrv-32" value="" style="edgeStyle=orthogonalEdgeStyle;rounded=0;orthogonalLoop=1;jettySize=auto;html=1;" parent="1" source="U-fwrkfTO3YeuutFTNrv-25" target="U-fwrkfTO3YeuutFTNrv-27" edge="1">
          <mxGeometry relative="1" as="geometry" />
        </mxCell>
        <mxCell id="U-fwrkfTO3YeuutFTNrv-25" value="Admin&amp;nbsp;&lt;div&gt;option 2&lt;/div&gt;" style="rhombus;whiteSpace=wrap;html=1;strokeWidth=2;rounded=1;arcSize=12;" parent="1" vertex="1">
          <mxGeometry x="356" y="800" width="118" height="120" as="geometry" />
        </mxCell>
        <mxCell id="U-fwrkfTO3YeuutFTNrv-33" value="" style="edgeStyle=orthogonalEdgeStyle;rounded=0;orthogonalLoop=1;jettySize=auto;html=1;" parent="1" source="U-fwrkfTO3YeuutFTNrv-27" target="U-fwrkfTO3YeuutFTNrv-28" edge="1">
          <mxGeometry relative="1" as="geometry" />
        </mxCell>
        <mxCell id="U-fwrkfTO3YeuutFTNrv-27" value="Admin&amp;nbsp;&lt;div&gt;option 3&lt;/div&gt;" style="rhombus;whiteSpace=wrap;html=1;strokeWidth=2;rounded=1;arcSize=12;" parent="1" vertex="1">
          <mxGeometry x="356" y="990" width="118" height="120" as="geometry" />
        </mxCell>
        <mxCell id="U-fwrkfTO3YeuutFTNrv-34" value="" style="edgeStyle=orthogonalEdgeStyle;rounded=0;orthogonalLoop=1;jettySize=auto;html=1;" parent="1" source="U-fwrkfTO3YeuutFTNrv-28" target="U-fwrkfTO3YeuutFTNrv-29" edge="1">
          <mxGeometry relative="1" as="geometry" />
        </mxCell>
        <mxCell id="U-fwrkfTO3YeuutFTNrv-28" value="Admin&amp;nbsp;&lt;div&gt;option&amp;nbsp;&lt;span style=&quot;background-color: initial;&quot;&gt;4&lt;/span&gt;&lt;/div&gt;" style="rhombus;whiteSpace=wrap;html=1;strokeWidth=2;rounded=1;arcSize=12;" parent="1" vertex="1">
          <mxGeometry x="356" y="1170" width="118" height="120" as="geometry" />
        </mxCell>
        <mxCell id="U-fwrkfTO3YeuutFTNrv-35" value="" style="edgeStyle=orthogonalEdgeStyle;rounded=0;orthogonalLoop=1;jettySize=auto;html=1;" parent="1" source="U-fwrkfTO3YeuutFTNrv-29" target="U-fwrkfTO3YeuutFTNrv-30" edge="1">
          <mxGeometry relative="1" as="geometry" />
        </mxCell>
        <mxCell id="U-fwrkfTO3YeuutFTNrv-29" value="Admin&amp;nbsp;&lt;div&gt;option 5&lt;/div&gt;" style="rhombus;whiteSpace=wrap;html=1;strokeWidth=2;rounded=1;arcSize=12;" parent="1" vertex="1">
          <mxGeometry x="356" y="1380" width="118" height="120" as="geometry" />
        </mxCell>
        <mxCell id="U-fwrkfTO3YeuutFTNrv-36" value="" style="edgeStyle=orthogonalEdgeStyle;rounded=0;orthogonalLoop=1;jettySize=auto;html=1;" parent="1" source="U-fwrkfTO3YeuutFTNrv-30" target="U-fwrkfTO3YeuutFTNrv-31" edge="1">
          <mxGeometry relative="1" as="geometry" />
        </mxCell>
        <mxCell id="U-fwrkfTO3YeuutFTNrv-30" value="Admin&amp;nbsp;&lt;div&gt;option 6&lt;/div&gt;" style="rhombus;whiteSpace=wrap;html=1;strokeWidth=2;rounded=1;arcSize=12;" parent="1" vertex="1">
          <mxGeometry x="356" y="1570" width="118" height="120" as="geometry" />
        </mxCell>
        <mxCell id="U-fwrkfTO3YeuutFTNrv-38" style="edgeStyle=orthogonalEdgeStyle;rounded=0;orthogonalLoop=1;jettySize=auto;html=1;exitX=0;exitY=0.5;exitDx=0;exitDy=0;" parent="1" source="U-fwrkfTO3YeuutFTNrv-31" edge="1">
          <mxGeometry relative="1" as="geometry">
            <mxPoint x="155" y="380" as="targetPoint" />
            <mxPoint x="351" y="1822" as="sourcePoint" />
          </mxGeometry>
        </mxCell>
        <mxCell id="U-fwrkfTO3YeuutFTNrv-31" value="Admin&amp;nbsp;&lt;div&gt;option 7&lt;/div&gt;" style="rhombus;whiteSpace=wrap;html=1;strokeWidth=2;rounded=1;arcSize=12;" parent="1" vertex="1">
          <mxGeometry x="356" y="1762" width="118" height="120" as="geometry" />
        </mxCell>
        <mxCell id="U-fwrkfTO3YeuutFTNrv-46" value="" style="edgeStyle=orthogonalEdgeStyle;rounded=0;orthogonalLoop=1;jettySize=auto;html=1;" parent="1" source="U-fwrkfTO3YeuutFTNrv-39" target="U-fwrkfTO3YeuutFTNrv-43" edge="1">
          <mxGeometry relative="1" as="geometry" />
        </mxCell>
        <mxCell id="U-fwrkfTO3YeuutFTNrv-39" value="User&amp;nbsp;&lt;div&gt;option 1&lt;/div&gt;" style="rhombus;whiteSpace=wrap;html=1;strokeWidth=2;rounded=1;arcSize=12;" parent="1" vertex="1">
          <mxGeometry x="631" y="520" width="118" height="120" as="geometry" />
        </mxCell>
        <mxCell id="U-fwrkfTO3YeuutFTNrv-47" value="" style="edgeStyle=orthogonalEdgeStyle;rounded=0;orthogonalLoop=1;jettySize=auto;html=1;" parent="1" source="U-fwrkfTO3YeuutFTNrv-43" target="U-fwrkfTO3YeuutFTNrv-44" edge="1">
          <mxGeometry relative="1" as="geometry" />
        </mxCell>
        <mxCell id="U-fwrkfTO3YeuutFTNrv-43" value="User&amp;nbsp;&lt;div&gt;option 2&lt;/div&gt;" style="rhombus;whiteSpace=wrap;html=1;strokeWidth=2;rounded=1;arcSize=12;" parent="1" vertex="1">
          <mxGeometry x="631" y="720" width="118" height="120" as="geometry" />
        </mxCell>
        <mxCell id="U-fwrkfTO3YeuutFTNrv-48" value="" style="edgeStyle=orthogonalEdgeStyle;rounded=0;orthogonalLoop=1;jettySize=auto;html=1;" parent="1" source="U-fwrkfTO3YeuutFTNrv-44" target="U-fwrkfTO3YeuutFTNrv-45" edge="1">
          <mxGeometry relative="1" as="geometry" />
        </mxCell>
        <mxCell id="U-fwrkfTO3YeuutFTNrv-44" value="User&amp;nbsp;&lt;div&gt;option 3&lt;/div&gt;" style="rhombus;whiteSpace=wrap;html=1;strokeWidth=2;rounded=1;arcSize=12;" parent="1" vertex="1">
          <mxGeometry x="631" y="940" width="118" height="120" as="geometry" />
        </mxCell>
        <mxCell id="U-fwrkfTO3YeuutFTNrv-49" style="edgeStyle=orthogonalEdgeStyle;rounded=0;orthogonalLoop=1;jettySize=auto;html=1;exitX=0.5;exitY=1;exitDx=0;exitDy=0;" parent="1" edge="1">
          <mxGeometry relative="1" as="geometry">
            <mxPoint x="156" y="1820" as="targetPoint" />
            <mxPoint x="686" y="1220" as="sourcePoint" />
            <Array as="points">
              <mxPoint x="686" y="1930" />
              <mxPoint x="156" y="1930" />
            </Array>
          </mxGeometry>
        </mxCell>
        <mxCell id="U-fwrkfTO3YeuutFTNrv-45" value="User&amp;nbsp;&lt;div&gt;option 4&lt;/div&gt;" style="rhombus;whiteSpace=wrap;html=1;strokeWidth=2;rounded=1;arcSize=12;" parent="1" vertex="1">
          <mxGeometry x="631" y="1160" width="118" height="120" as="geometry" />
        </mxCell>
      </root>
    </mxGraphModel>
  </diagram>
  <diagram id="90Am0PH_DlZNjm5Hq2CY" name="Page-4">
    <mxGraphModel dx="2978" dy="1744" grid="1" gridSize="10" guides="1" tooltips="1" connect="1" arrows="1" fold="1" page="1" pageScale="1" pageWidth="850" pageHeight="1100" math="0" shadow="0">
      <root>
        <mxCell id="0" />
        <mxCell id="1" parent="0" />
      </root>
    </mxGraphModel>
  </diagram>
</mxfile>
